<svg width="52" height="26" viewBox="0 0 52 26" fill="none" xmlns="http://www.w3.org/2000/svg">
<path d="M10.6667 1L0 25.3333H8L12.6667 13L17.6667 25.3333H25.6667L14.6667 1H10.6667Z" fill="white"/>
<path fill-rule="evenodd" clip-rule="evenodd" d="M39 26C46.1797 26 52 20.1797 52 13C52 5.8203 46.1797 0 39 0C31.8203 0 26 5.8203 26 13C26 20.1797 31.8203 26 39 26ZM39 19.3333C42.4978 19.3333 45.3333 16.4978 45.3333 13C45.3333 9.5022 42.4978 6.66667 39 6.66667C35.5022 6.66667 32.6667 9.5022 32.6667 13C32.6667 16.4978 35.5022 19.3333 39 19.3333Z" fill="white"/>
</svg>
