<svg width="60" height="60" viewBox="0 0 60 60" fill="none" xmlns="http://www.w3.org/2000/svg">
<path fill-rule="evenodd" clip-rule="evenodd" d="M1.30262 24.5336C2.98098 15.7597 8.6478 7.86556 17.3122 3.68757C25.4578 -0.240294 34.5238 -0.0498583 42.153 3.43548C38.0287 12.1956 24.5949 27.6195 1.30262 24.5336ZM0.786069 30.5186C26.8616 33.8644 42.2445 16.806 47.3422 6.48586C51.0537 9.2183 54.1709 12.8714 56.3122 17.3119C58.7956 22.4621 59.6327 27.9801 59.0316 33.2704C47.5732 31.2713 26.4011 33.3094 13.2493 53.9377C9.27745 51.1638 5.94185 47.3619 3.68785 42.6876C1.79264 38.7573 0.856211 34.6127 0.786069 30.5186ZM42.6878 56.3119C50.1249 52.7257 55.3534 46.4016 57.7469 39.1334C47.9816 37.4871 29.9483 39.2727 18.5097 56.8569C25.9978 60.0569 34.7768 60.1266 42.6878 56.3119Z" fill="#C2FC3C"/>
</svg>
