<svg width="562" height="562" viewBox="0 0 562 562" fill="none" xmlns="http://www.w3.org/2000/svg">
<g filter="url(#filter0_di_34_1341)">
<ellipse cx="277.397" cy="277.397" rx="190.936" ry="190.936" transform="rotate(-180 277.397 277.397)" fill="white"/>
</g>
<path fill-rule="evenodd" clip-rule="evenodd" d="M197.768 111.261C105.5 155.754 66.7695 266.62 111.262 358.888C155.754 451.157 266.62 489.887 358.889 445.395C451.157 400.902 489.887 290.036 445.395 197.768C400.903 105.499 290.036 66.7692 197.768 111.261ZM193.074 101.526C95.4289 148.611 54.4419 265.938 101.527 363.583C148.612 461.227 265.938 502.214 363.583 455.13C461.228 408.045 502.215 290.718 455.13 193.073C408.045 95.4286 290.719 54.4417 193.074 101.526Z" fill="black"/>
<path fill-rule="evenodd" clip-rule="evenodd" d="M74.2316 241.614C86.3245 178.397 127.155 121.519 189.582 91.4159C248.273 63.1151 313.594 64.4872 368.564 89.5995C338.848 152.717 242.056 263.848 74.2316 241.614ZM70.5099 284.737C258.388 308.844 369.223 185.936 405.953 111.578C432.694 131.265 455.155 157.587 470.582 189.581C488.476 226.688 494.508 266.447 490.177 304.564C407.617 290.16 255.069 304.845 160.309 453.475C131.691 433.488 107.658 406.095 91.4176 372.416C77.7623 344.098 71.0152 314.235 70.5099 284.737ZM372.418 470.581C426.002 444.742 463.675 399.176 480.92 346.808C410.56 334.946 280.627 347.811 198.211 474.508C252.163 497.564 315.418 498.066 372.418 470.581Z" fill="#C2FC3C"/>
<path fill-rule="evenodd" clip-rule="evenodd" d="M76.5422 231.017C75.682 234.527 74.9114 238.06 74.2316 241.614C77.8531 242.094 81.4415 242.511 84.9968 242.869C238.087 258.259 329.925 161.886 363.685 99.2531C365.474 95.9332 367.101 92.7081 368.564 89.5995C365.284 88.1008 361.966 86.6866 358.615 85.3582C305.821 64.4291 244.77 64.8042 189.582 91.4159C130.664 119.827 90.9832 172.087 76.5422 231.017ZM87.3741 232.242C233.347 246.306 321.074 154.889 353.684 95.0319C303.8 75.5477 246.298 76.0661 194.277 101.151C138.838 127.884 101.349 176.866 87.3741 232.242ZM81.3454 285.974C254.821 303.316 360.526 194.573 400.885 121.276C402.707 117.966 404.396 114.728 405.953 111.578C408.906 113.753 411.808 116.008 414.654 118.343C437.57 137.15 456.859 161.121 470.582 189.581C486.792 223.195 493.267 258.985 491.123 293.76C490.9 297.373 490.584 300.976 490.177 304.564C486.732 303.963 483.165 303.413 479.486 302.921C396.808 291.863 257.286 310.224 166.25 444.441C164.245 447.396 162.265 450.407 160.309 453.475C157.353 451.41 154.446 449.267 151.591 447.045C126.81 427.762 105.98 402.616 91.4176 372.416C79.4504 347.598 72.789 321.595 70.9847 295.69C70.7302 292.036 70.5723 288.384 70.5099 284.737C74.1506 285.204 77.7625 285.616 81.3454 285.974ZM81.9118 296.89C258.769 313.842 367.173 203.636 409.465 128.082C430.464 145.701 448.156 167.956 460.847 194.275C476.082 225.868 482.25 259.462 480.392 292.14C394.998 280.896 251.379 300.005 157.562 437.995C134.356 419.779 114.844 396.114 101.153 367.722C90.0934 344.787 83.8148 320.806 81.9118 296.89ZM480.92 346.808C477.437 346.221 473.809 345.694 470.048 345.239C399.682 336.724 282.784 353.191 204.37 465.375C202.289 468.351 200.236 471.395 198.211 474.508C201.594 475.953 205.014 477.31 208.466 478.577C260.071 497.517 318.992 496.343 372.418 470.581C422.442 446.459 458.598 405.144 477.213 357.152C478.538 353.736 479.774 350.287 480.92 346.808ZM466.178 355.669C398.762 348.225 289.301 364.717 214.783 469.363C263.129 486.359 317.935 484.854 367.723 460.846C414.336 438.369 448.249 400.173 466.178 355.669Z" fill="black"/>
<defs>
<filter id="filter0_di_34_1341" x="82.4614" y="84.4609" width="397.872" height="397.872" filterUnits="userSpaceOnUse" color-interpolation-filters="sRGB">
<feFlood flood-opacity="0" result="BackgroundImageFix"/>
<feColorMatrix in="SourceAlpha" type="matrix" values="0 0 0 0 0 0 0 0 0 0 0 0 0 0 0 0 0 0 127 0" result="hardAlpha"/>
<feOffset dx="4" dy="6"/>
<feGaussianBlur stdDeviation="4"/>
<feComposite in2="hardAlpha" operator="out"/>
<feColorMatrix type="matrix" values="0 0 0 0 0 0 0 0 0 0 0 0 0 0 0 0 0 0 0.24 0"/>
<feBlend mode="normal" in2="BackgroundImageFix" result="effect1_dropShadow_34_1341"/>
<feBlend mode="normal" in="SourceGraphic" in2="effect1_dropShadow_34_1341" result="shape"/>
<feColorMatrix in="SourceAlpha" type="matrix" values="0 0 0 0 0 0 0 0 0 0 0 0 0 0 0 0 0 0 127 0" result="hardAlpha"/>
<feMorphology radius="2" operator="erode" in="SourceAlpha" result="effect2_innerShadow_34_1341"/>
<feOffset dx="2" dy="2"/>
<feGaussianBlur stdDeviation="4"/>
<feComposite in2="hardAlpha" operator="arithmetic" k2="-1" k3="1"/>
<feColorMatrix type="matrix" values="0 0 0 0 1 0 0 0 0 1 0 0 0 0 1 0 0 0 0.4 0"/>
<feBlend mode="normal" in2="shape" result="effect2_innerShadow_34_1341"/>
</filter>
</defs>
</svg>
