<svg width="20" height="11" viewBox="0 0 20 11" fill="none" xmlns="http://www.w3.org/2000/svg">
<mask id="path-1-outside-1_649_1813" maskUnits="userSpaceOnUse" x="-3" y="-2" width="24" height="15" fill="black">
<rect fill="white" x="-3" y="-2" width="24" height="15"/>
<path d="M5.06 6.42H19.2V4.38H5.06C5.92 3.76 6.98 2.66 7.72 1.64L5.92 0.639999C4.54 2.4 2.5 4.22 0.7 5.4C2.5 6.58 4.54 8.4 5.92 10.16L7.72 9.16C6.98 8.14 5.92 7.04 5.06 6.42Z"/>
</mask>
<path d="M5.06 6.42H19.2V4.38H5.06C5.92 3.76 6.98 2.66 7.72 1.64L5.92 0.639999C4.54 2.4 2.5 4.22 0.7 5.4C2.5 6.58 4.54 8.4 5.92 10.16L7.72 9.16C6.98 8.14 5.92 7.04 5.06 6.42Z" fill="white"/>
<path d="M5.06 6.42V4.92H0.414386L4.1828 7.63676L5.06 6.42ZM19.2 6.42V7.92H20.7V6.42H19.2ZM19.2 4.38H20.7V2.88H19.2V4.38ZM5.06 4.38L4.1828 3.16323L0.414383 5.88H5.06V4.38ZM7.72 1.64L8.93413 2.52084L9.9281 1.15078L8.44846 0.328764L7.72 1.64ZM5.92 0.639999L6.64846 -0.671236L5.52945 -1.29291L4.73959 -0.285547L5.92 0.639999ZM0.7 5.4L-0.122376 4.14553L-2.03598 5.4L-0.122376 6.65447L0.7 5.4ZM5.92 10.16L4.73959 11.0855L5.52945 12.0929L6.64846 11.4712L5.92 10.16ZM7.72 9.16L8.44846 10.4712L9.9281 9.64922L8.93413 8.27916L7.72 9.16ZM5.06 7.92H19.2V4.92H5.06V7.92ZM20.7 6.42V4.38H17.7V6.42H20.7ZM19.2 2.88H5.06V5.88H19.2V2.88ZM5.9372 5.59676C6.95366 4.86397 8.12219 3.64001 8.93413 2.52084L6.50587 0.759158C5.83781 1.67999 4.88634 2.65603 4.1828 3.16323L5.9372 5.59676ZM8.44846 0.328764L6.64846 -0.671236L5.19154 1.95123L6.99154 2.95124L8.44846 0.328764ZM4.73959 -0.285547C3.46852 1.33553 1.55286 3.04732 -0.122376 4.14553L1.52238 6.65447C3.44714 5.39268 5.61148 3.46447 7.10041 1.56555L4.73959 -0.285547ZM-0.122376 6.65447C1.55286 7.75268 3.46852 9.46447 4.73959 11.0855L7.10041 9.23445C5.61148 7.33553 3.44714 5.40732 1.52238 4.14553L-0.122376 6.65447ZM6.64846 11.4712L8.44846 10.4712L6.99154 7.84876L5.19154 8.84876L6.64846 11.4712ZM8.93413 8.27916C8.12219 7.15999 6.95366 5.93603 5.9372 5.20324L4.1828 7.63676C4.88634 8.14397 5.83781 9.12001 6.50587 10.0408L8.93413 8.27916Z" fill="black" mask="url(#path-1-outside-1_649_1813)"/>
</svg>
