<svg width="76" height="55" viewBox="0 0 76 55" fill="none" xmlns="http://www.w3.org/2000/svg">
<path d="M25.0069 14.8865C25.8322 16.4085 24.9979 18.4426 23.1434 19.4298C21.2889 20.4171 19.1165 19.9837 18.2912 18.4618C17.4659 16.9398 18.3002 14.9057 20.1547 13.9184C22.0092 12.9312 24.1816 13.3646 25.0069 14.8865Z" fill="#1991D0"/>
<path fill-rule="evenodd" clip-rule="evenodd" d="M22.3803 18.0227C23.7244 17.3071 23.867 16.1392 23.5952 15.638C23.3235 15.1369 22.2618 14.6101 20.9178 15.3256C19.5738 16.0411 19.4311 17.209 19.7029 17.7102C19.9747 18.2114 21.0363 18.7382 22.3803 18.0227ZM23.1434 19.4298C24.9979 18.4426 25.8322 16.4085 25.0069 14.8865C24.1816 13.3646 22.0092 12.9312 20.1547 13.9184C18.3002 14.9057 17.4659 16.9398 18.2912 18.4618C19.1165 19.9837 21.2889 20.4171 23.1434 19.4298Z" fill="black"/>
<path d="M58.8361 28.2517C48.737 26.0492 57.7035 27.4074 49.9385 26.4314C45.1129 25.8249 41.4834 38.1452 35.8354 39.7275C21.0991 43.8561 13.2589 61.7343 9.15293 47.2029C5.04695 32.6716 13.7587 17.8778 28.495 13.7492C40.7482 10.6757 55.9909 14.3126 58.8361 28.2517Z" fill="#1991D0"/>
<path fill-rule="evenodd" clip-rule="evenodd" d="M51.9305 26.6754C53.3668 26.8452 53.5183 26.8456 53.5205 26.8636C53.5232 26.8861 53.2935 26.936 55.035 27.3761C55.036 27.3764 55.037 27.3766 55.038 27.3769C55.5446 27.5049 56.2176 27.6658 57.1112 27.8686C57.6133 27.9826 58.1851 28.1097 58.8361 28.2517C58.7145 27.6558 58.5702 27.0787 58.4044 26.5202C54.6931 14.0139 40.2244 10.8071 28.495 13.7492C13.7587 17.8778 5.04695 32.6716 9.15293 47.2029C11.6359 55.9904 15.4845 52.926 21.3978 48.2174C25.2631 45.1397 30.0105 41.3595 35.8354 39.7275C38.5598 38.9643 40.8145 35.7027 42.9603 32.5985C45.2631 29.2673 47.4406 26.1175 49.9385 26.4314C50.7829 26.5376 51.4294 26.6161 51.9241 26.6746C51.9263 26.6749 51.9284 26.6751 51.9305 26.6754ZM52.1767 25.9937C52.1787 25.9908 52.1805 25.988 52.1821 25.9855C52.183 25.9842 52.184 25.9828 52.1848 25.9815C52.1826 25.9848 52.1799 25.9889 52.1767 25.9937ZM52.2058 25.951C52.2058 25.951 52.2057 25.951 52.2057 25.951L52.2058 25.951ZM28.909 15.2948C14.991 19.2059 6.84247 33.1418 10.6936 46.7713C11.1838 48.5062 11.6938 49.6178 12.1781 50.2983C12.6409 50.9485 13.0171 51.1237 13.2879 51.1769C13.6058 51.2393 14.0934 51.194 14.8582 50.8522C15.6198 50.512 16.5065 49.9459 17.5579 49.1738C18.4343 48.5301 19.3673 47.7873 20.3917 46.9716C20.5915 46.8125 20.7948 46.6507 21.0018 46.4863C22.2568 45.4895 23.6262 44.4169 25.1004 43.3749C28.0454 41.2933 31.469 39.2892 35.4004 38.1878C36.3623 37.9183 37.3953 37.1343 38.5425 35.8372C39.6009 34.6404 40.6075 33.1847 41.6567 31.6675C41.7302 31.5611 41.804 31.4544 41.878 31.3475C42.9688 29.7718 44.1345 28.1105 45.3661 26.893C46.5723 25.7006 48.1757 24.5986 50.1354 24.8449C52.0676 25.0877 52.954 25.1848 53.3541 25.2281C53.3704 25.2299 53.3886 25.2318 53.4082 25.2339C53.534 25.2471 53.7183 25.2665 53.8402 25.2929L53.8404 25.293C53.8493 25.2946 54.126 25.3451 54.4044 25.5305C54.4175 25.5392 54.4312 25.5486 54.4456 25.5589C54.5141 25.5801 54.6008 25.6058 54.7095 25.6365C55.0852 25.7425 55.6743 25.8935 56.5887 26.1078C54.837 21.1555 51.1625 17.9203 46.6035 16.1061C41.2789 13.9873 34.7654 13.8302 28.909 15.2948Z" fill="black"/>
<path d="M57.4065 23.1923C33.2966 27.6467 20.8493 43.0188 17.6394 50.1481C21.2052 49.8679 20.9615 50.2956 31.2823 48.123C36.5646 47.011 50.9832 33.1388 57.4839 26.046C58.3403 25.207 59.5238 23.4617 57.4065 23.1923Z" fill="#1991D0"/>
<path fill-rule="evenodd" clip-rule="evenodd" d="M18.9685 49.2612C19.1309 49.2528 19.2857 49.2452 19.4363 49.2379C20.1918 49.2012 20.8424 49.1696 21.8315 49.0517C23.4684 48.8565 25.9579 48.4268 31.1159 47.341C32.255 47.1012 34.0247 46.1216 36.2245 44.5513C38.3891 43.0061 40.8666 40.9662 43.3948 38.7288C48.4503 34.2547 53.6604 29.0331 56.8931 25.5059C56.9028 25.4954 56.9127 25.4851 56.923 25.4751C57.1071 25.2947 57.3075 25.0663 57.4728 24.8282C57.6437 24.5819 57.7455 24.3699 57.7821 24.2178C57.793 24.1726 57.7961 24.1433 57.7965 24.1259C57.7619 24.1016 57.6603 24.0445 57.423 24.0032C34.9888 28.1925 22.8591 41.9396 18.9685 49.2612ZM57.7943 24.1043C57.7947 24.104 57.7956 24.1066 57.7961 24.1127C57.7942 24.1077 57.794 24.1046 57.7943 24.1043ZM16.9094 49.8194C20.2186 42.4695 32.8729 26.912 57.2596 22.4065C57.341 22.3914 57.4242 22.3891 57.5063 22.3996C58.1272 22.4786 58.6938 22.6859 59.0549 23.1328C59.4379 23.6068 59.4428 24.1616 59.3388 24.5941C59.2371 25.0169 59.0148 25.4154 58.7891 25.7407C58.5628 26.067 58.3007 26.3655 58.0609 26.6022C54.792 30.1675 49.5501 35.4198 44.4578 39.9265C41.9085 42.1827 39.3847 44.2627 37.157 45.8529C34.9644 47.4181 32.951 48.5895 31.4489 48.9057C26.2861 49.9925 23.737 50.4353 22.0242 50.6395C21.0029 50.7612 20.249 50.7991 19.4351 50.8399C18.9118 50.8662 18.3637 50.8937 17.7038 50.9455C17.4217 50.9677 17.1486 50.8394 16.9854 50.6081C16.8223 50.3769 16.7934 50.077 16.9094 49.8194Z" fill="black"/>
<path d="M66.2615 19.7021C56.8446 16.3021 43.22 34.9033 37.5848 44.629C37.9275 44.0538 41.2057 41.0267 51.577 33.5205C61.9483 26.0143 66.1341 31.3591 66.9306 34.9697C70.6313 31.2972 75.6784 23.1021 66.2615 19.7021Z" fill="#1991D0"/>
<path fill-rule="evenodd" clip-rule="evenodd" d="M41.1914 40.3424C43.3752 38.5926 46.5652 36.1587 51.1065 32.8718C56.3789 29.056 60.2998 28.3445 63.1062 29.3203C65.2818 30.0768 66.5975 31.7809 67.2788 33.4269C68.8106 31.6739 70.3083 29.3353 70.7282 27.0849C70.9752 25.7612 70.8421 24.5148 70.1753 23.419C69.5048 22.3169 68.2305 21.2618 65.9906 20.453C63.9346 19.7107 61.5643 20.1365 58.9751 21.5012C56.3905 22.8636 53.6958 25.1082 51.0799 27.8C47.3763 31.6109 43.8988 36.2468 41.1914 40.3424ZM58.2258 20.0867C61.0158 18.616 63.8799 17.9916 66.5323 18.9493C69.0009 19.8406 70.627 21.0848 71.543 22.5904C72.4628 24.1022 72.6023 25.7715 72.302 27.3807C71.7113 30.5469 69.3921 33.6542 67.4953 35.5365C67.2883 35.742 66.9855 35.8183 66.7053 35.7356C66.425 35.653 66.2118 35.4245 66.1489 35.1395C65.7865 33.4965 64.671 31.5566 62.5825 30.8304C60.5041 30.1077 57.1464 30.477 52.0475 34.1673C46.8694 37.9149 43.4707 40.5382 41.3282 42.2918C40.2565 43.169 39.5045 43.8242 39.0036 44.2906C38.7529 44.5241 38.5703 44.7054 38.4443 44.84C38.3291 44.9631 38.2839 45.0235 38.2745 45.036C38.2726 45.0385 38.2722 45.0391 38.2729 45.0379C38.0479 45.4154 37.5597 45.5402 37.18 45.3171C36.8002 45.094 36.6715 44.6068 36.8918 44.2266C39.73 39.3282 44.5825 32.1877 49.9301 26.6851C52.6019 23.9358 55.4312 21.5597 58.2258 20.0867Z" fill="black"/>
<path d="M24.1434 24.3602L25.3148 33.2875L27.6679 31.8768L26.8566 27.4825L30.5113 30.1722L32.8644 28.7614L25.3199 23.6549L24.1434 24.3602Z" fill="white"/>
<path fill-rule="evenodd" clip-rule="evenodd" d="M36.904 26.6027C39.0158 25.3366 39.6972 22.6249 38.4258 20.5458C37.1544 18.4668 34.4118 17.8077 32.2999 19.0738C30.1881 20.3399 29.5067 23.0516 30.7781 25.1307C32.0495 27.2097 34.7921 27.8688 36.904 26.6027ZM35.7235 24.6722C36.7523 24.0554 37.0842 22.7343 36.4649 21.7214C35.8455 20.7085 34.5093 20.3875 33.4805 21.0043C32.4516 21.6211 32.1197 22.9422 32.7391 23.9551C33.3584 24.9679 34.6946 25.289 35.7235 24.6722Z" fill="white"/>
</svg>
