<svg width="76" height="55" viewBox="0 0 76 55" fill="none" xmlns="http://www.w3.org/2000/svg">
<path d="M25.0069 14.8865C25.8322 16.4085 24.9979 18.4426 23.1434 19.4298C21.2889 20.4171 19.1165 19.9837 18.2912 18.4618C17.4659 16.9398 18.3002 14.9057 20.1547 13.9184C22.0092 12.9312 24.1816 13.3646 25.0069 14.8865Z" fill="#21966A"/>
<path fill-rule="evenodd" clip-rule="evenodd" d="M22.3803 18.0227C23.7244 17.3071 23.867 16.1392 23.5952 15.638C23.3235 15.1369 22.2618 14.6101 20.9178 15.3256C19.5738 16.0411 19.4311 17.209 19.7029 17.7102C19.9747 18.2114 21.0363 18.7382 22.3803 18.0227ZM23.1434 19.4298C24.9979 18.4426 25.8322 16.4085 25.0069 14.8865C24.1816 13.3646 22.0092 12.9312 20.1547 13.9184C18.3002 14.9057 17.4659 16.9398 18.2912 18.4618C19.1165 19.9837 21.2889 20.4171 23.1434 19.4298Z" fill="black"/>
<path d="M58.8361 28.2517C48.737 26.0492 57.7035 27.4074 49.9385 26.4314C45.1129 25.8249 41.4834 38.1452 35.8354 39.7275C21.0991 43.8561 13.2589 61.7343 9.15293 47.2029C5.04695 32.6716 13.7587 17.8778 28.495 13.7492C40.7482 10.6757 55.9909 14.3126 58.8361 28.2517Z" fill="#21966A"/>
<path fill-rule="evenodd" clip-rule="evenodd" d="M51.9305 26.6754C53.3668 26.8452 53.5183 26.8456 53.5205 26.8636C53.5232 26.8861 53.2935 26.936 55.035 27.3761C55.036 27.3764 55.037 27.3766 55.038 27.3769C55.5446 27.5049 56.2176 27.6658 57.1112 27.8686C57.6133 27.9826 58.1851 28.1097 58.8361 28.2517C58.7145 27.6558 58.5702 27.0787 58.4044 26.5202C54.6931 14.0139 40.2244 10.8071 28.495 13.7492C13.7587 17.8778 5.04695 32.6716 9.15293 47.2029C11.6359 55.9904 15.4845 52.926 21.3978 48.2174C25.2631 45.1397 30.0105 41.3595 35.8354 39.7275C38.5598 38.9643 40.8145 35.7027 42.9603 32.5985C45.2631 29.2673 47.4406 26.1175 49.9385 26.4314C50.7829 26.5376 51.4294 26.6161 51.9241 26.6746C51.9263 26.6749 51.9284 26.6751 51.9305 26.6754ZM52.1767 25.9937C52.1787 25.9908 52.1805 25.988 52.1821 25.9855C52.183 25.9842 52.184 25.9828 52.1848 25.9815C52.1826 25.9848 52.1799 25.9889 52.1767 25.9937ZM52.2058 25.951C52.2058 25.951 52.2057 25.951 52.2057 25.951L52.2058 25.951ZM28.909 15.2948C14.991 19.2059 6.84247 33.1418 10.6936 46.7713C11.1838 48.5062 11.6938 49.6178 12.1781 50.2983C12.6409 50.9485 13.0171 51.1237 13.2879 51.1769C13.6058 51.2393 14.0934 51.194 14.8582 50.8522C15.6198 50.512 16.5065 49.9459 17.5579 49.1738C18.4343 48.5301 19.3673 47.7873 20.3917 46.9716C20.5915 46.8125 20.7948 46.6507 21.0018 46.4863C22.2568 45.4895 23.6262 44.4169 25.1004 43.3749C28.0454 41.2933 31.469 39.2892 35.4004 38.1878C36.3623 37.9183 37.3953 37.1343 38.5425 35.8372C39.6009 34.6404 40.6075 33.1847 41.6567 31.6675C41.7302 31.5611 41.804 31.4544 41.878 31.3475C42.9688 29.7718 44.1345 28.1105 45.3661 26.893C46.5723 25.7006 48.1757 24.5986 50.1354 24.8449C52.0676 25.0877 52.954 25.1848 53.3541 25.2281C53.3704 25.2299 53.3886 25.2318 53.4082 25.2339C53.534 25.2471 53.7183 25.2665 53.8402 25.2929L53.8404 25.293C53.8493 25.2946 54.126 25.3451 54.4044 25.5305C54.4175 25.5392 54.4312 25.5486 54.4456 25.5589C54.5141 25.5801 54.6008 25.6058 54.7095 25.6365C55.0852 25.7425 55.6743 25.8935 56.5887 26.1078C54.837 21.1555 51.1625 17.9203 46.6035 16.1061C41.2789 13.9873 34.7654 13.8302 28.909 15.2948Z" fill="black"/>
<g clip-path="url(#clip0_40_2137)">
<path d="M34.7579 21.038C35.5021 22.3607 35.8375 23.8743 35.7215 25.3875C35.6056 26.9007 35.0435 28.3456 34.1063 29.5393C33.1692 30.7331 31.8991 31.6222 30.4567 32.0941C29.0143 32.5661 27.4644 32.5997 26.0028 32.1907C24.5413 31.7818 23.2339 30.9486 22.2459 29.7966C21.2579 28.6446 20.6337 27.2255 20.4522 25.7187C20.2707 24.2119 20.5401 22.6852 21.2264 21.3315C21.9126 19.9779 22.9848 18.8581 24.3074 18.1138C26.081 17.1158 28.1784 16.8632 30.1383 17.4116C32.0981 17.96 33.7598 19.2644 34.7579 21.038Z" fill="#05482F"/>
<path d="M31.6104 31.0911C30.3663 31.7912 28.9425 32.1067 27.5191 31.9976C26.0957 31.8885 24.7366 31.3598 23.6137 30.4783C22.4908 29.5968 21.6545 28.4021 21.2105 27.0453C20.7666 25.6885 20.735 24.2305 21.1197 22.8557C21.5044 21.481 22.2881 20.2511 23.3717 19.3218C24.4553 18.3924 25.7902 17.8053 27.2076 17.6346C28.6249 17.4639 30.061 17.7173 31.3343 18.3628C32.6076 19.0083 33.6609 20.0168 34.361 21.261C35.2992 22.9294 35.5364 24.9021 35.0206 26.7454C34.5048 28.5888 33.2782 30.1519 31.6104 31.0911ZM24.4483 18.3636C23.1731 19.0813 22.1392 20.1609 21.4776 21.4661C20.8159 22.7713 20.5562 24.2434 20.7311 25.6962C20.9061 27.149 21.508 28.5173 22.4606 29.6281C23.4132 30.7389 24.6738 31.5422 26.083 31.9365C27.4922 32.3308 28.9867 32.2984 30.3774 31.8434C31.7682 31.3883 32.9928 30.5311 33.8964 29.3801C34.8 28.229 35.3419 26.8359 35.4537 25.3769C35.5655 23.9178 35.2422 22.4584 34.5246 21.1831L34.5185 21.1724C33.5554 19.4635 31.9532 18.2068 30.0641 17.6786C28.1749 17.1503 26.1533 17.3936 24.4435 18.355" fill="white"/>
<path d="M32.0138 22.6021C32.4517 23.3803 32.649 24.2709 32.5808 25.1613C32.5126 26.0516 32.1819 26.9018 31.6305 27.6042C31.0791 28.3066 30.3318 28.8297 29.4831 29.1074C28.6344 29.385 27.7224 29.4048 26.8625 29.1642C26.0025 28.9236 25.2332 28.4333 24.6519 27.7555C24.0706 27.0777 23.7033 26.2427 23.5965 25.3561C23.4898 24.4696 23.6483 23.5713 24.052 22.7748C24.4558 21.9783 25.0867 21.3195 25.8649 20.8815C26.9085 20.2943 28.1426 20.1457 29.2957 20.4683C30.4488 20.791 31.4266 21.5585 32.0138 22.6021Z" fill="white"/>
<path d="M26.4869 30.0121L26.5202 29.9451C26.662 29.9902 26.9827 30.0654 26.9827 30.0654C27.2157 30.1161 27.3007 30.2671 27.2687 30.4072C27.2583 30.452 27.2391 30.4944 27.2122 30.5317C27.1853 30.5691 27.1512 30.6008 27.112 30.625C27.0728 30.6492 27.0292 30.6653 26.9837 30.6726C26.9383 30.6798 26.8918 30.678 26.847 30.6672C26.8378 30.6655 26.8288 30.663 26.82 30.6597L26.7514 30.6386L26.7569 30.5475C26.7839 30.5551 26.8122 30.5574 26.84 30.5541C26.8679 30.5507 26.8949 30.5419 26.9193 30.5282C26.9438 30.5144 26.9653 30.496 26.9826 30.4739C26.9999 30.4517 27.0126 30.4264 27.0201 30.3994L27.0236 30.3804C27.0448 30.2918 27.0029 30.2074 26.8677 30.1841L26.7926 30.1667L26.5996 31.0251L26.3808 30.9693L26.5739 30.091L26.4869 30.0121Z" fill="white"/>
<path d="M28.7071 30.8081L29.0064 30.7646L28.8753 30.5316C28.846 30.4796 28.8211 30.4252 28.8009 30.369C28.7959 30.4258 28.7866 30.485 28.7761 30.542L28.7071 30.8081ZM29.0787 30.883L28.6823 30.9356L28.6388 31.1561L28.4732 31.1698L28.7229 30.1346L28.8968 30.1105L29.4168 30.9285L29.52 30.9556L29.5209 31.0176L29.2048 31.0818L29.0787 30.883Z" fill="white"/>
<path d="M30.4911 29.688L30.471 29.6169L30.8808 29.3863C30.9479 29.339 31.0309 29.32 31.1118 29.3335C31.1928 29.3469 31.2652 29.3918 31.3133 29.4582C31.3467 29.5192 31.36 29.5892 31.3515 29.6583C31.3429 29.7273 31.3129 29.7919 31.2656 29.8429L31.7302 30.0274L31.4908 30.1877L31.0797 29.9617L31.0457 29.9013C31.0915 29.8651 31.122 29.8129 31.1311 29.7551C31.1402 29.6974 31.1272 29.6383 31.0947 29.5897C31.0844 29.5701 31.0703 29.5527 31.0531 29.5386C31.036 29.5245 31.0162 29.514 30.9949 29.5077C30.9736 29.5014 30.9512 29.4994 30.9292 29.5019C30.9071 29.5044 30.8858 29.5113 30.8664 29.5222L30.7823 29.5696L31.2157 30.3397L31.0194 30.4501L30.5848 29.6779L30.4911 29.688Z" fill="white"/>
<path d="M33.2049 28.5952L33.0653 28.776L32.3485 28.2392L32.2622 28.2878L32.2162 28.2313C32.2809 28.1494 32.3394 28.0767 32.4008 27.9939L33.2049 28.5952Z" fill="white"/>
<path d="M33.4556 26.4006L33.3004 26.4226C33.2848 26.4503 33.274 26.4805 33.2682 26.5117C33.2542 26.5878 33.2684 26.6736 33.3653 26.6843C33.5757 26.725 33.6425 26.2784 33.9694 26.3444C34.0489 26.3696 34.1154 26.4251 34.1543 26.4989C34.1932 26.5727 34.2014 26.659 34.1771 26.7388C34.152 26.8493 34.1008 26.9521 34.0277 27.0387L33.8953 26.9598C33.9737 26.8906 34.0282 26.7983 34.0509 26.6962C34.0633 26.6324 34.0502 26.5688 33.9732 26.5581C33.7729 26.5203 33.6878 26.9545 33.3756 26.8944C33.3352 26.8833 33.2974 26.8644 33.2644 26.8386C33.2314 26.8128 33.2038 26.7807 33.1832 26.7442C33.1627 26.7077 33.1496 26.6675 33.1447 26.6259C33.1398 26.5842 33.1432 26.5421 33.1547 26.5018L33.1622 26.4748C33.1795 26.3899 33.2132 26.3092 33.2614 26.2372L33.4645 26.3104L33.4556 26.4006Z" fill="white"/>
<path d="M23.2946 29.2611L23.2118 29.2907C23.0424 29.1049 22.8834 28.9099 22.7355 28.7066C22.6633 28.6215 22.6277 28.5113 22.6364 28.4001C22.645 28.2888 22.6973 28.1855 22.7818 28.1125C22.8677 28.0573 22.9696 28.0323 23.0714 28.0413C23.1732 28.0504 23.269 28.0931 23.3439 28.1626L23.6481 27.2899C23.7122 27.4102 23.7834 27.5267 23.8613 27.6385L23.5337 28.3938L23.4517 28.4399C23.3998 28.3728 23.3245 28.3277 23.2408 28.3137C23.157 28.2997 23.0711 28.3179 23.0002 28.3645C22.9737 28.3833 22.9512 28.4072 22.9339 28.4348C22.9166 28.4623 22.9049 28.493 22.8994 28.5251C22.894 28.5571 22.895 28.59 22.9022 28.6217C22.9095 28.6534 22.9229 28.6833 22.9418 28.7098C22.9466 28.7231 22.9535 28.7355 22.9624 28.7465L23.0622 28.8835L24.1661 28.0692C24.2225 28.1475 24.287 28.2198 24.3584 28.2847L23.2524 29.1003L23.2946 29.2611Z" fill="white"/>
<path d="M23.1816 26.6575C23.0827 26.3809 22.823 26.2373 22.4232 26.3799C22.2843 26.4108 22.1631 26.4951 22.0858 26.6146C22.0085 26.7341 21.9813 26.8792 22.01 27.0186L22.0299 27.0841C22.1312 27.3651 22.3839 27.5012 22.7717 27.3625C23.1594 27.2239 23.2844 26.9462 23.1816 26.6575ZM23.3543 26.6314C23.4293 26.8175 23.4276 27.0256 23.3496 27.2105C23.2717 27.3954 23.1238 27.5419 22.9382 27.6182L22.8908 27.6449C22.7948 27.6809 22.6927 27.6976 22.5902 27.6941C22.4878 27.6906 22.3871 27.6669 22.2938 27.6245C22.2005 27.582 22.1165 27.5215 22.0466 27.4466C21.9767 27.3716 21.9223 27.2836 21.8864 27.1875L21.8573 27.1358C21.7069 26.712 21.8191 26.2654 22.2755 26.1023C22.4797 26.0278 22.705 26.0373 22.9023 26.1286C23.0995 26.2199 23.2525 26.3856 23.3279 26.5894C23.3368 26.6033 23.3449 26.6177 23.3521 26.6326" fill="white"/>
<path d="M21.675 25.6507L21.6126 25.8022L21.5219 25.7823C21.5063 25.6689 21.4814 25.4983 21.473 25.3724L22.8478 25.2918L22.8402 25.1824C22.8307 25.0742 22.7946 24.97 22.735 24.8791C22.6754 24.7882 22.5943 24.7135 22.4989 24.6616L22.537 24.5578L22.9912 24.7794C22.9914 25.0875 23.0172 25.395 23.0683 25.6988L22.9812 25.7308L22.8962 25.5798L21.675 25.6507Z" fill="white"/>
<path d="M22.6122 23.5351L21.9547 23.6438L22.5148 24.0131L22.6122 23.5351ZM23.2204 22.9855L23.3023 23.0303C23.2554 23.1589 23.2141 23.2873 23.1723 23.4301L22.7981 23.5072L22.662 24.1234L23.0124 24.3523C23.0055 24.4158 23.001 24.5036 22.9987 24.5702L21.566 23.604L21.6075 23.4103L23.1273 23.1231L23.2204 22.9855Z" fill="white"/>
<path d="M22.6846 20.9443L23.9958 21.7601L23.9314 21.8475L22.5055 22.1301L23.4743 22.6302L23.3923 22.8126L22.1819 22.1759L22.0447 22.2701L21.9782 22.2025L22.1041 21.9214L23.4119 21.6513L22.6918 21.2044L22.5555 21.2953L22.4902 21.2298C22.5427 21.1463 22.6286 21.0213 22.6825 20.9455" fill="white"/>
<path d="M24.4888 20.9599C24.5984 20.8541 24.6615 20.7092 24.6642 20.5569C24.6669 20.4046 24.6091 20.2575 24.5033 20.1479C24.4937 20.1368 24.4832 20.1266 24.4719 20.1173C24.3762 20.0071 24.2414 19.9385 24.096 19.9259C23.9505 19.9134 23.806 19.9579 23.6928 20.0501L23.6316 20.113L23.4523 20.2991L24.3083 21.1438L24.4888 20.9599ZM23.5768 19.945C23.6342 19.8705 23.7056 19.8082 23.7871 19.7613C23.8685 19.7145 23.9584 19.6842 24.0515 19.6722C24.1447 19.6601 24.2393 19.6665 24.33 19.691C24.4207 19.7155 24.5057 19.7576 24.5801 19.8149C24.6115 19.8409 24.6414 19.8687 24.6695 19.8981C24.7446 19.9649 24.8058 20.046 24.8494 20.1365C24.8931 20.227 24.9184 20.3253 24.9239 20.4257C24.9295 20.5261 24.9151 20.6265 24.8817 20.7213C24.8482 20.8161 24.7963 20.9034 24.7291 20.978L24.6805 21.0281C24.6805 21.0281 24.4256 21.2766 24.2452 21.486L23.2421 20.5111L23.0854 20.5708L23.0393 20.4889C23.2401 20.2651 23.4629 20.0403 23.5772 19.9305" fill="white"/>
<path d="M27.3884 19.6069C27.2033 19.7457 26.9923 19.8461 26.7678 19.9021C26.3169 20.0195 25.8665 19.9208 25.73 19.3955C25.5934 18.8701 25.9222 18.5005 26.418 18.3721C26.6157 18.3237 26.8194 18.3047 27.0226 18.3159L27.0688 18.7159L26.9845 18.7378L26.8604 18.5576C26.7192 18.5231 26.5719 18.5224 26.4303 18.5554C26.3589 18.57 26.291 18.5985 26.2306 18.6393C26.1702 18.6801 26.1184 18.7325 26.0783 18.7933C26.0381 18.8542 26.0104 18.9224 25.9966 18.9939C25.9828 19.0655 25.9833 19.1391 25.998 19.2105C26.0101 19.2321 26.0127 19.2619 26.0205 19.2859C26.0354 19.3624 26.0654 19.4351 26.1088 19.4997C26.1522 19.5644 26.208 19.6197 26.2731 19.6625C26.3382 19.7053 26.4112 19.7346 26.4878 19.7488C26.5643 19.7629 26.643 19.7616 26.7191 19.7449L26.7514 19.7267C26.8715 19.6932 26.9818 19.6311 27.0728 19.5458L26.9952 19.2515L26.7258 19.227L26.7219 19.1241L27.2189 18.9978L27.3884 19.6069Z" fill="white"/>
<path d="M28.4967 19.1938L28.2579 18.5726L28.0028 19.1792L28.4967 19.1938ZM29.1448 19.7096L29.1165 19.8107C28.9902 19.7881 28.8258 19.7584 28.7212 19.7491L28.564 19.3689L27.9335 19.3488L27.7874 19.7151L27.5699 19.7324L28.2406 18.1734L28.4282 18.1786L29.0086 19.6442L29.1448 19.7096Z" fill="white"/>
<path d="M29.6343 18.4396L29.6882 18.3638C29.9242 18.4267 30.1566 18.5026 30.3842 18.5913C30.4935 18.6224 30.586 18.6953 30.6417 18.7943C30.6974 18.8933 30.7118 19.0103 30.6817 19.1198C30.642 19.214 30.5722 19.2923 30.4831 19.3424C30.3941 19.3925 30.2909 19.4115 30.1898 19.3966L30.4298 20.2925L30.0478 20.1184L29.8812 19.3175L29.936 19.2383C30.0153 19.2636 30.1013 19.2582 30.1767 19.2231C30.2522 19.1879 30.3117 19.1257 30.3435 19.0488C30.3532 19.0143 30.3561 18.9781 30.3518 18.9425C30.3476 18.9069 30.3364 18.8724 30.3188 18.8412C30.3012 18.8099 30.2776 18.7824 30.2493 18.7603C30.221 18.7382 30.1887 18.7218 30.1541 18.7123L29.9957 18.6679L29.5661 19.9236L29.2873 19.8419L29.7575 18.5577L29.6343 18.4396Z" fill="white"/>
<path d="M31.3392 19.1219L31.4151 19.065C31.6305 19.1904 31.8383 19.3286 32.0372 19.4789C32.133 19.5358 32.2024 19.6283 32.2302 19.7362C32.2579 19.8442 32.2417 19.9587 32.185 20.0547L32.1699 20.0632C32.1045 20.1415 32.0147 20.1956 31.9148 20.2168C31.815 20.2379 31.7109 20.225 31.6193 20.1799L31.6052 21.1138C31.5087 21.0232 31.2913 20.8388 31.2913 20.8388L31.3652 20.0161L31.4387 19.9549C31.508 20.0009 31.5919 20.0196 31.6742 20.0073C31.7565 19.9951 31.8314 19.9529 31.8843 19.8887C31.9257 19.8304 31.9422 19.758 31.9302 19.6876C31.9182 19.6171 31.8788 19.5542 31.8205 19.5128L31.8132 19.4999L31.6763 19.398L30.8633 20.5173L30.6146 20.3732L31.4153 19.2722L31.3392 19.1219Z" fill="white"/>
<path d="M32.2705 21.6655C32.4418 21.9043 32.729 21.9756 33.077 21.7258C33.1408 21.6941 33.1976 21.65 33.2442 21.5961C33.2909 21.5422 33.3263 21.4796 33.3484 21.4119C33.3706 21.3442 33.3791 21.2727 33.3733 21.2017C33.3676 21.1307 33.3478 21.0615 33.3151 20.9982L33.2738 20.9248C33.0989 20.6796 32.8153 20.6148 32.4825 20.8561C32.1496 21.0974 32.1055 21.3977 32.2807 21.6484M32.1246 21.7192C32.0618 21.6421 32.0152 21.5531 31.9875 21.4576C31.9597 21.3621 31.9515 21.2619 31.9632 21.1632C31.9749 21.0644 32.0063 20.969 32.0556 20.8826C32.1049 20.7962 32.171 20.7205 32.2501 20.6602L32.3019 20.6311C32.4683 20.5085 32.6766 20.4571 32.8809 20.488C33.0853 20.5189 33.269 20.6297 33.3917 20.7961C33.4032 20.8141 33.4138 20.8329 33.4232 20.8521C33.6839 21.2195 33.6987 21.6799 33.3035 21.9619C33.1279 22.0895 32.9089 22.1422 32.6944 22.1085C32.48 22.0747 32.2877 21.9572 32.1598 21.7818C32.1487 21.7644 32.1386 21.7464 32.1295 21.7279" fill="white"/>
<path d="M33.9953 22.9435L34.1953 22.7487C34.1885 22.6965 34.1767 22.6451 34.16 22.5952C34.1115 22.4635 34.0192 22.345 33.8733 22.3987C33.637 22.4834 33.7919 23.2029 33.4109 23.3434C33.1028 23.4572 32.9032 23.2286 32.8022 22.9532C32.7434 22.792 32.7269 22.6184 32.7542 22.449L32.9605 22.4522C32.9109 22.6075 32.916 22.775 32.9749 22.927C33.0183 23.0446 33.1157 23.1318 33.2385 23.0826C33.4737 22.9957 33.3205 22.2894 33.72 22.1413C33.9911 22.0427 34.2209 22.2542 34.3283 22.546C34.3717 22.6658 34.3947 22.7921 34.3965 22.9195L34.0198 23.0122L33.9953 22.9435Z" fill="white"/>
<path d="M30.12 23.6476L29.859 23.7945L29.3897 23.3088C29.1648 23.328 28.9462 23.393 28.7473 23.4998C28.0829 23.8737 28.0604 24.6817 28.5198 25.4627L27.3932 24.7276C27.4106 24.3674 27.5227 24.0182 27.7182 23.7151C27.9138 23.4121 28.1858 23.166 28.5068 23.0018C28.868 22.802 29.2684 22.6833 29.6801 22.654L30.12 23.6476ZM28.6895 20.5302L27.434 23.614C27.3918 23.4394 27.3084 23.2773 27.1909 23.1414C27.0734 23.0055 26.9252 22.8995 26.7585 22.8324L27.7158 20.4958C27.5618 20.5088 27.4086 20.5297 27.2567 20.5582L26.3672 22.7629C26.1283 22.7776 25.8974 22.8546 25.6976 22.9863L25.1583 23.2898L26.102 20.9694L25.9597 21.0495C25.2586 21.444 24.6812 22.026 24.2923 22.7301C23.9033 23.4343 23.7181 24.2329 23.7574 25.0364C23.7968 25.8399 24.0591 26.6165 24.5149 27.2794C24.9708 27.9422 25.6023 28.465 26.3385 28.7891L25.7668 27.7731L26.5373 25.8767L25.3659 23.795L25.6744 23.6214C26.1058 23.3787 26.4385 23.5408 26.5599 23.7565C26.7311 24.0607 26.6335 24.4223 26.2172 24.7475L26.2804 24.976L27.5609 25.7978L26.341 28.7934C26.7488 28.9712 27.1817 29.085 27.6243 29.1307L27.0501 28.1104L27.8961 26.0352L28.6641 25.603C28.8257 25.8246 29.0651 25.9768 29.3343 26.0292C29.6034 26.0816 29.8825 26.0303 30.1154 25.8855C30.2627 25.8069 30.3982 25.7077 30.5177 25.591L30.1535 24.9438L29.4764 25.1033L29.3544 24.7857L30.5625 24.1059L31.3649 25.5318C31.0612 25.9012 30.696 26.2152 30.2854 26.4602C30.0467 26.6095 29.7768 26.7015 29.4966 26.729C29.2165 26.7566 28.9338 26.7189 28.6706 26.619L27.6351 29.1246C28.7681 29.2495 29.9046 28.9227 30.7983 28.2152C31.692 27.5077 32.2708 26.4764 32.4092 25.345C32.5476 24.2136 32.2345 23.0732 31.5378 22.1711C30.841 21.269 29.8168 20.6778 28.6871 20.5258" fill="#D35220"/>
</g>
<path d="M57.4065 23.1923C33.2966 27.6467 20.8493 43.0188 17.6394 50.1481C21.2052 49.8679 20.9615 50.2956 31.2823 48.123C36.5646 47.011 50.9832 33.1388 57.4839 26.046C58.3403 25.207 59.5238 23.4617 57.4065 23.1923Z" fill="#21966A"/>
<path fill-rule="evenodd" clip-rule="evenodd" d="M18.9685 49.2612C19.1309 49.2528 19.2857 49.2452 19.4363 49.2379C20.1918 49.2012 20.8424 49.1696 21.8315 49.0517C23.4684 48.8565 25.9579 48.4268 31.1159 47.341C32.255 47.1012 34.0247 46.1216 36.2245 44.5513C38.3891 43.0061 40.8666 40.9662 43.3948 38.7288C48.4503 34.2547 53.6604 29.0331 56.8931 25.5059C56.9028 25.4954 56.9127 25.4851 56.923 25.4751C57.1071 25.2947 57.3075 25.0663 57.4728 24.8282C57.6437 24.5819 57.7455 24.3699 57.7821 24.2178C57.793 24.1726 57.7961 24.1433 57.7965 24.1259C57.7619 24.1016 57.6603 24.0445 57.423 24.0032C34.9888 28.1925 22.8591 41.9396 18.9685 49.2612ZM57.7943 24.1043C57.7947 24.104 57.7956 24.1066 57.7961 24.1127C57.7942 24.1077 57.794 24.1046 57.7943 24.1043ZM16.9094 49.8194C20.2186 42.4695 32.8729 26.912 57.2596 22.4065C57.341 22.3914 57.4242 22.3891 57.5063 22.3996C58.1272 22.4786 58.6938 22.6859 59.0549 23.1328C59.4379 23.6068 59.4428 24.1616 59.3388 24.5941C59.2371 25.0169 59.0148 25.4154 58.7891 25.7407C58.5628 26.067 58.3007 26.3655 58.0609 26.6022C54.792 30.1675 49.5501 35.4198 44.4578 39.9265C41.9085 42.1827 39.3847 44.2627 37.157 45.8529C34.9644 47.4181 32.951 48.5895 31.4489 48.9057C26.2861 49.9925 23.737 50.4353 22.0242 50.6395C21.0029 50.7612 20.249 50.7991 19.4351 50.8399C18.9118 50.8662 18.3637 50.8937 17.7038 50.9455C17.4217 50.9677 17.1486 50.8394 16.9854 50.6081C16.8223 50.3769 16.7934 50.077 16.9094 49.8194Z" fill="black"/>
<path d="M66.2615 19.7021C56.8446 16.3021 43.22 34.9033 37.5848 44.629C37.9275 44.0538 41.2057 41.0267 51.577 33.5205C61.9483 26.0143 66.1341 31.3591 66.9306 34.9697C70.6313 31.2972 75.6784 23.1021 66.2615 19.7021Z" fill="#21966A"/>
<path fill-rule="evenodd" clip-rule="evenodd" d="M41.1914 40.3424C43.3752 38.5926 46.5652 36.1587 51.1065 32.8718C56.3789 29.056 60.2998 28.3445 63.1062 29.3203C65.2818 30.0768 66.5975 31.7809 67.2788 33.4269C68.8106 31.6739 70.3083 29.3353 70.7282 27.0849C70.9752 25.7612 70.8421 24.5148 70.1753 23.419C69.5048 22.3169 68.2305 21.2618 65.9906 20.453C63.9346 19.7107 61.5643 20.1365 58.9751 21.5012C56.3905 22.8636 53.6958 25.1082 51.0799 27.8C47.3763 31.6109 43.8988 36.2468 41.1914 40.3424ZM58.2258 20.0867C61.0158 18.616 63.8799 17.9916 66.5323 18.9493C69.0009 19.8406 70.627 21.0848 71.543 22.5904C72.4628 24.1022 72.6023 25.7715 72.302 27.3807C71.7113 30.5469 69.3921 33.6542 67.4953 35.5365C67.2883 35.742 66.9855 35.8183 66.7053 35.7356C66.425 35.653 66.2118 35.4245 66.1489 35.1395C65.7865 33.4965 64.671 31.5566 62.5825 30.8304C60.5041 30.1077 57.1464 30.477 52.0475 34.1673C46.8694 37.9149 43.4707 40.5382 41.3282 42.2918C40.2565 43.169 39.5045 43.8242 39.0036 44.2906C38.7529 44.5241 38.5703 44.7054 38.4443 44.84C38.3291 44.9631 38.2839 45.0235 38.2745 45.036C38.2726 45.0385 38.2722 45.0391 38.2729 45.0379C38.0479 45.4154 37.5597 45.5402 37.18 45.3171C36.8002 45.094 36.6715 44.6068 36.8918 44.2266C39.73 39.3282 44.5825 32.1877 49.9301 26.6851C52.6019 23.9358 55.4312 21.5597 58.2258 20.0867Z" fill="black"/>
<defs>
<clipPath id="clip0_40_2137">
<rect width="15.3468" height="15.3468" fill="white" transform="translate(17.6201 21.877) rotate(-29.3675)"/>
</clipPath>
</defs>
</svg>
