<svg width="42" height="21" viewBox="0 0 42 21" fill="none" xmlns="http://www.w3.org/2000/svg">
<path d="M8.61539 0.807617L0 20.4615H6.46154L10.2308 10.4999L14.2692 20.4615H20.7308L11.8462 0.807617H8.61539Z" fill="#1991D0"/>
<path fill-rule="evenodd" clip-rule="evenodd" d="M31.5 21C37.299 21 42 16.299 42 10.5C42 4.70101 37.299 0 31.5 0C25.701 0 21 4.70101 21 10.5C21 16.299 25.701 21 31.5 21ZM31.5 15.6154C34.3251 15.6154 36.6154 13.3251 36.6154 10.5C36.6154 7.67485 34.3251 5.38462 31.5 5.38462C28.6749 5.38462 26.3846 7.67485 26.3846 10.5C26.3846 13.3251 28.6749 15.6154 31.5 15.6154Z" fill="#1991D0"/>
</svg>
