<svg width="40" height="40" viewBox="0 0 40 40" fill="none" xmlns="http://www.w3.org/2000/svg">
<g clip-path="url(#clip0_40_2472)">
<path d="M40 20C40 23.9556 38.827 27.8224 36.6294 31.1114C34.4318 34.4004 31.3082 36.9638 27.6537 38.4776C23.9992 39.9913 19.9778 40.3874 16.0982 39.6157C12.2186 38.844 8.65492 36.9392 5.85787 34.1421C3.06082 31.3451 1.15601 27.7814 0.384303 23.9018C-0.387401 20.0222 0.00866567 16.0009 1.52242 12.3463C3.03617 8.69181 5.59962 5.56824 8.8886 3.37061C12.1776 1.17298 16.0444 0 20 0C25.3043 0 30.3914 2.10714 34.1421 5.85786C37.8929 9.60859 40 14.6957 40 20Z" fill="#05482F"/>
<path d="M20.0002 38.813C16.2793 38.813 12.6421 37.7096 9.5483 35.6424C6.45453 33.5752 4.04324 30.6371 2.61933 27.1995C1.19543 23.7619 0.82287 19.9792 1.54877 16.3299C2.27467 12.6805 4.06643 9.32838 6.69746 6.69734C9.32849 4.06631 12.6806 2.27456 16.33 1.54866C19.9793 0.822757 23.762 1.19532 27.1996 2.61922C30.6372 4.04312 33.5754 6.45442 35.6426 9.54819C37.7097 12.642 38.8131 16.2792 38.8131 20.0001C38.8114 24.989 36.8288 29.7732 33.301 33.3009C29.7733 36.8287 24.9892 38.8113 20.0002 38.813ZM20.0002 0.748463C16.1862 0.748463 12.4579 1.87944 9.28664 3.99838C6.11543 6.11732 3.64377 9.12905 2.18421 12.6527C0.724664 16.1764 0.342779 20.0537 1.08685 23.7944C1.83092 27.5351 3.66754 30.9712 6.36443 33.6681C9.06133 36.365 12.4974 38.2016 16.2381 38.9457C19.9788 39.6897 23.8561 39.3079 27.3798 37.8483C30.9035 36.3888 33.9152 33.9171 36.0341 30.7459C38.1531 27.5747 39.2841 23.8463 39.2841 20.0323V20.0001C39.2806 14.8873 37.2477 9.98504 33.6318 6.37038C30.0159 2.75572 25.113 0.724365 20.0002 0.722656" fill="white"/>
<path d="M31.7679 20.0451C31.7679 22.3725 31.0777 24.6477 29.7847 26.5829C28.4916 28.5181 26.6538 30.0264 24.5035 30.9171C22.3532 31.8077 19.9871 32.0408 17.7044 31.5867C15.4217 31.1327 13.3249 30.0119 11.6791 28.3661C10.0334 26.7204 8.9126 24.6236 8.45854 22.3409C8.00448 20.0581 8.23752 17.692 9.12819 15.5418C10.0189 13.3915 11.5272 11.5536 13.4624 10.2606C15.3976 8.96751 17.6727 8.27734 20.0002 8.27734C23.1212 8.27734 26.1143 9.51716 28.3212 11.724C30.5281 13.9309 31.7679 16.9241 31.7679 20.0451Z" fill="white"/>
<path d="M9.74186 29.8128L9.90315 29.7031C10.1677 29.987 10.7999 30.5676 10.7999 30.5676C11.2644 30.9805 11.2644 31.4322 11.0128 31.7096C10.9317 31.7981 10.8339 31.8697 10.7251 31.9202C10.6162 31.9708 10.4984 31.9993 10.3784 32.0041C10.2585 32.0089 10.1388 31.9899 10.0262 31.9482C9.91361 31.9065 9.8104 31.8429 9.7225 31.7612C9.70371 31.7456 9.68643 31.7284 9.67089 31.7096L9.54186 31.5741L9.67089 31.3741C9.72246 31.426 9.78378 31.4672 9.85132 31.4953C9.91886 31.5234 9.99129 31.5378 10.0644 31.5378C10.1376 31.5378 10.21 31.5234 10.2776 31.4953C10.3451 31.4672 10.4064 31.426 10.458 31.3741L10.4902 31.3354C10.6515 31.1612 10.6644 30.916 10.387 30.6902L10.2386 30.5547L8.70315 32.258L8.27734 31.8515L9.83863 30.1031L9.74186 29.8128Z" fill="white"/>
<path d="M13.768 34.4579L14.5034 34.7418V34.045C14.5035 33.8894 14.5165 33.734 14.5422 33.5805C14.4583 33.7031 14.3615 33.8257 14.2647 33.9418L13.768 34.4579ZM14.5164 35.1031L13.5486 34.716L13.168 35.1611L12.7744 34.9805L14.6647 32.9482L15.0905 33.116L15.226 35.6386L15.426 35.8321L15.3486 35.974L14.5486 35.716L14.5164 35.1031Z" fill="white"/>
<path d="M19.2515 34.1933L19.2966 34.0062H20.5224C20.7352 33.9844 20.948 34.0474 21.1146 34.1814C21.2813 34.3155 21.3884 34.5098 21.4128 34.7223C21.4106 34.9036 21.3515 35.0796 21.2439 35.2255C21.1362 35.3714 20.9854 35.4797 20.8128 35.5352L21.6321 36.5481L20.8837 36.6062L20.2386 35.5675V35.3868C20.389 35.363 20.525 35.2833 20.6194 35.1638C20.7139 35.0443 20.7598 34.8936 20.7482 34.7417C20.75 34.6838 20.7401 34.6262 20.7191 34.5723C20.6982 34.5183 20.6666 34.4691 20.6263 34.4276C20.586 34.3861 20.5377 34.3531 20.4844 34.3306C20.4311 34.3081 20.3738 34.2965 20.316 34.2965H20.0644V36.5997H19.4773V34.29L19.2515 34.1933Z" fill="white"/>
<path d="M26.8129 35.1807L26.2645 35.4129L25.3225 33.2774H25.0645L25.0322 33.0903C25.2838 32.9871 25.5096 32.8968 25.7548 32.7871L26.8129 35.1807Z" fill="white"/>
<path d="M30.1869 30.5158L29.8062 30.3675C29.7354 30.4105 29.6721 30.465 29.6191 30.5287C29.4901 30.6836 29.4127 30.8965 29.6191 31.0449C30.0449 31.4062 30.7675 30.4771 31.4256 31.0449C31.5742 31.2037 31.6542 31.4147 31.6482 31.6321C31.6421 31.8496 31.5506 32.0559 31.3933 32.2062C31.1952 32.4251 30.9474 32.5932 30.6707 32.6965L30.4707 32.3481C30.7373 32.291 30.979 32.151 31.1611 31.9481C31.2707 31.8191 31.3223 31.6578 31.1611 31.5352C30.7546 31.1933 30.0062 32.0707 29.374 31.5352C29.2963 31.4584 29.2347 31.367 29.1926 31.2662C29.1506 31.1654 29.1289 31.0573 29.1289 30.9481C29.1289 30.8389 29.1506 30.7308 29.1926 30.63C29.2347 30.5292 29.2963 30.4378 29.374 30.361L29.4256 30.3094C29.5733 30.1385 29.753 29.9982 29.9546 29.8965L30.3223 30.3223L30.1869 30.5158Z" fill="white"/>
<path d="M3.45139 24.0258L3.22558 23.9871C3.0783 23.3486 2.96631 22.7024 2.8901 22.0516C2.83499 21.766 2.89492 21.4702 3.05682 21.2285C3.21873 20.9869 3.46951 20.819 3.75462 20.7613C4.02048 20.7458 4.28395 20.8191 4.50354 20.9698C4.72313 21.1205 4.88636 21.3399 4.96752 21.5935L6.77397 20C6.76568 20.3553 6.7786 20.7108 6.81268 21.0645L5.103 22.3613H4.85784C4.82584 22.1424 4.71235 21.9437 4.54008 21.8049C4.36781 21.6661 4.14949 21.5976 3.92881 21.6129C3.84449 21.6218 3.76275 21.6471 3.68825 21.6876C3.61374 21.7281 3.54795 21.7828 3.49462 21.8487C3.4413 21.9146 3.40148 21.9904 3.37746 22.0717C3.35344 22.153 3.34567 22.2383 3.35461 22.3226C3.34848 22.3589 3.34848 22.396 3.35461 22.4323L3.40623 22.871L6.95461 22.4323C6.98252 22.6824 7.03658 22.9289 7.1159 23.1677L3.56107 23.6065L3.45139 24.0258Z" fill="white"/>
<path d="M6.52271 17.9681C6.65174 17.2133 6.24529 16.5552 5.15496 16.3681C4.79991 16.2608 4.41689 16.2973 4.08857 16.47C3.76025 16.6426 3.51298 16.9374 3.40013 17.2907L3.36142 17.4649C3.23238 18.2326 3.63238 18.8649 4.69045 19.0455C5.74851 19.2262 6.38722 18.7552 6.52271 17.9681ZM6.94851 18.1294C6.88091 18.6479 6.61099 19.1187 6.19764 19.439C5.78429 19.7593 5.26105 19.9031 4.74206 19.8391H4.60013C4.33612 19.7982 4.08276 19.7057 3.85456 19.5668C3.62635 19.4279 3.42777 19.2453 3.27017 19.0296C3.11257 18.8139 2.99906 18.5692 2.93612 18.3096C2.87317 18.0499 2.86204 17.7805 2.90335 17.5165V17.3617C3.10335 16.2068 3.92916 15.3359 5.17432 15.5488C5.73326 15.6406 6.23306 15.9501 6.56435 16.4096C6.89565 16.8691 7.03145 17.441 6.94206 18.0004C6.94449 18.0434 6.94449 18.0864 6.94206 18.1294" fill="white"/>
<path d="M4.38722 13.7547L4.05174 14.0192L3.87109 13.8579C3.98077 13.5805 4.14206 13.1611 4.284 12.8643L7.5098 14.4385L7.63238 14.1805C7.74914 13.9225 7.80022 13.6396 7.78109 13.357C7.76195 13.0745 7.67318 12.801 7.52271 12.5611L7.74206 12.374L8.49045 13.4579C8.09725 14.158 7.76277 14.8896 7.49045 15.645L7.25174 15.6063V15.1547L4.38722 13.7547Z" fill="white"/>
<path d="M9.2194 10.1488L7.58714 9.55525L8.38714 11.1101L9.2194 10.1488ZM11.3033 9.67783L11.4323 9.88428C11.1613 10.1165 10.9033 10.3552 10.6258 10.6262L9.67746 10.323L8.58069 11.5488L9.08391 12.5165C8.98714 12.652 8.86456 12.8456 8.77424 12.994L6.75488 8.96815L7.09682 8.58105L10.9162 9.87138L11.3033 9.67783Z" fill="white"/>
<path d="M12.6968 4.35449L14.6323 7.88352L14.3742 7.99965L10.7742 6.81901L12.3355 9.1932L11.9161 9.50288L9.98066 6.50933L9.5484 6.54804L9.48389 6.30933L10.129 5.83191L13.4452 6.88998L12.3807 4.95449L11.9549 4.98675L11.8903 4.75449C12.1161 4.63191 12.471 4.45772 12.6903 4.35449" fill="white"/>
<path d="M16.7743 6.69656C17.1584 6.59646 17.4871 6.34786 17.6879 6.00546C17.8888 5.66306 17.9454 5.25489 17.8453 4.87076C17.8375 4.83338 17.8267 4.7967 17.813 4.76108C17.7365 4.38845 17.5179 4.06024 17.2036 3.8459C16.8893 3.63157 16.504 3.54793 16.1291 3.61269L15.9098 3.67721L15.2646 3.87076L16.1291 6.88366L16.7743 6.69656ZM16.0001 3.22559C16.2255 3.12985 16.4675 3.07943 16.7123 3.07722C16.9572 3.07501 17.2001 3.12105 17.4271 3.21272C17.6542 3.30438 17.861 3.43986 18.0357 3.61144C18.2104 3.78302 18.3495 3.98732 18.4453 4.21269C18.4834 4.31181 18.5157 4.41306 18.542 4.51592C18.6272 4.76369 18.6625 5.02585 18.6459 5.28732C18.6294 5.54879 18.5613 5.8044 18.4456 6.03945C18.3298 6.2745 18.1688 6.48435 17.9716 6.65691C17.7745 6.82947 17.5452 6.96135 17.2969 7.04495L17.1227 7.09656C17.1227 7.09656 16.2259 7.33527 15.5485 7.58043L14.5162 4.08366L14.084 4.01914V3.77398C14.8259 3.52237 15.6195 3.29656 16.0195 3.19334" fill="white"/>
<path d="M25.0905 7.32921C24.4926 7.40808 23.8849 7.3664 23.3034 7.20663C22.1292 6.89695 21.2324 6.09695 21.5937 4.72921C21.955 3.36147 23.1743 2.94211 24.4647 3.28405C24.9755 3.42678 25.4625 3.64418 25.9098 3.92921L25.5034 4.89695L25.284 4.83889L25.2324 4.27114C24.9557 4.01228 24.622 3.8222 24.2582 3.71631C24.0773 3.65808 23.8867 3.63609 23.6974 3.65161C23.508 3.66712 23.3235 3.71983 23.1545 3.80672C22.9855 3.89362 22.8353 4.01298 22.7125 4.15799C22.5897 4.303 22.4967 4.4708 22.4388 4.65179C22.4388 4.71631 22.4066 4.78727 22.3937 4.85179C22.3298 5.04444 22.305 5.24793 22.3209 5.45028C22.3368 5.65264 22.3929 5.84978 22.4861 6.03011C22.5793 6.21044 22.7076 6.37032 22.8634 6.50035C23.0193 6.63038 23.1996 6.72793 23.3937 6.78727H23.4905C23.8062 6.86465 24.136 6.86465 24.4518 6.78727L24.6518 6.01953L24.0711 5.61953L24.1937 5.38082L25.484 5.72921L25.0905 7.32921Z" fill="white"/>
<path d="M28.1353 7.80629L28.387 6.09016L27.0321 7.14178L28.1353 7.80629ZM28.9482 9.80629L28.7547 9.99984C28.4966 9.78694 28.1612 9.50952 27.9353 9.35468L28.0644 8.29017L26.6579 7.43855L25.8579 8.08371L25.3418 7.845L28.8579 5.16113L29.2773 5.41275L28.7224 9.48371L28.9482 9.80629Z" fill="white"/>
<path d="M31.6837 7.54854L31.903 7.44531C32.3588 7.88993 32.7896 8.35947 33.1933 8.85176C33.4018 9.062 33.5187 9.34605 33.5187 9.64209C33.5187 9.93812 33.4018 10.2222 33.1933 10.4324C32.9829 10.5956 32.7242 10.6842 32.4579 10.6842C32.1916 10.6842 31.9328 10.5956 31.7224 10.4324L31.1224 12.7743L30.4772 11.8905L31.1224 9.85822L31.3482 9.74854C31.496 9.90738 31.6981 10.0048 31.9144 10.0216C32.1308 10.0383 32.3455 9.97309 32.5159 9.83886C32.5823 9.77291 32.6349 9.6945 32.6708 9.60814C32.7067 9.52178 32.7252 9.42917 32.7252 9.33564C32.7252 9.2421 32.7067 9.14949 32.6708 9.06313C32.6349 8.97677 32.5823 8.89836 32.5159 8.83241L32.2127 8.52918L29.6321 10.8324L29.103 10.2905L31.8127 7.97434L31.6837 7.54854Z" fill="white"/>
<path d="M34.6836 11.2774L34.9288 11.2451C35.2579 11.8054 35.553 12.385 35.8127 12.9806C35.9578 13.2322 35.9971 13.5311 35.9222 13.8117C35.8472 14.0923 35.6639 14.3317 35.4127 14.4774H35.3675C35.1187 14.5717 34.8455 14.5797 34.5916 14.5002C34.3377 14.4206 34.118 14.2581 33.9675 14.0387L32.7417 16.1419C32.6385 15.8129 32.3804 15.1161 32.3804 15.1161L33.5998 13.3419L33.8449 13.2967C33.9436 13.4898 34.1103 13.6395 34.3128 13.7169C34.5154 13.7943 34.7394 13.7941 34.9417 13.7161C35.1102 13.6364 35.2401 13.4932 35.303 13.3178C35.3659 13.1424 35.3566 12.9492 35.2772 12.7806V12.7419L35.0965 12.3354L31.8191 13.8387L31.4385 13.1935L34.6643 11.7161L34.6836 11.2774Z" fill="white"/>
<path d="M33.5482 18.2447C33.6321 19.006 34.1933 19.5351 35.303 19.4125C35.4885 19.422 35.674 19.3946 35.8487 19.3317C36.0235 19.2688 36.184 19.1718 36.3209 19.0464C36.4578 18.9209 36.5684 18.7694 36.6461 18.6008C36.7239 18.4321 36.7674 18.2497 36.774 18.0641V17.8447C36.6901 17.0641 36.1288 16.5544 35.0643 16.677C33.9998 16.7996 33.5159 17.4254 33.5933 18.2189M33.1482 18.1802C33.1042 17.9247 33.112 17.663 33.1711 17.4106C33.2302 17.1581 33.3394 16.9202 33.4923 16.7107C33.6451 16.5013 33.8385 16.3248 34.0609 16.1915C34.2832 16.0583 34.5301 15.9711 34.7869 15.9351H34.9417C35.4764 15.8694 36.0153 16.0188 36.4399 16.3502C36.8645 16.6817 37.1401 17.1682 37.2062 17.7028C37.2094 17.7587 37.2094 17.8147 37.2062 17.8706C37.3288 19.0383 36.774 20.1028 35.5159 20.2383C34.9539 20.3037 34.3889 20.1435 33.945 19.7927C33.501 19.4419 33.2145 18.9292 33.1482 18.3673C33.1452 18.3136 33.1452 18.2598 33.1482 18.206" fill="white"/>
<path d="M35.8322 23.3552L36.5354 23.1681C36.5868 23.041 36.6257 22.9092 36.6516 22.7745C36.7096 22.4132 36.6516 22.0262 36.2516 21.9616C35.6064 21.852 35.0387 23.6842 33.9935 23.5165C33.1483 23.381 32.987 22.6068 33.1096 21.852C33.1822 21.4107 33.3666 20.9954 33.6451 20.6455L34.1096 20.9165C33.7985 21.2057 33.5958 21.5928 33.5354 22.0132C33.4838 22.3358 33.5935 22.6584 33.9354 22.7036C34.5806 22.8068 35.1354 21.0068 36.2322 21.181C36.9741 21.3036 37.2258 22.0778 37.0967 22.8778C37.0421 23.2054 36.933 23.5216 36.7741 23.8132L35.8 23.5423L35.8322 23.3552Z" fill="white"/>
<path d="M26.1288 19.9996H25.3482L24.903 18.2964C24.3676 18.0526 23.788 17.9209 23.1998 17.9093C21.2127 17.9093 20.1288 19.7158 20.174 22.077L18.5546 18.9674C19.0545 18.1714 19.7556 17.5214 20.587 17.083C21.4185 16.6446 22.3509 16.4334 23.2901 16.4706C24.3659 16.4785 25.4271 16.7207 26.3998 17.1803L26.1288 19.9996ZM26.8643 11.09L20.0708 16.49C20.198 16.0393 20.2157 15.5647 20.1226 15.1057C20.0295 14.6468 19.8281 14.2167 19.5353 13.8512L24.6966 9.76737C24.3301 9.60015 23.9555 9.45157 23.574 9.32221L18.7353 13.1932C18.1739 12.9211 17.5511 12.801 16.9288 12.8448H15.3159L20.4256 8.78027H19.9998C17.9031 8.78027 15.8477 9.36415 14.0641 10.4665C12.2805 11.5688 10.8391 13.146 9.90143 15.0214C8.96373 16.8968 8.5668 18.9963 8.7551 21.0845C8.9434 23.1728 9.70949 25.1674 10.9675 26.8448V23.8061L15.1417 20.4835V14.2577H16.0643C17.3546 14.2577 17.903 15.0512 17.903 15.6964C17.903 16.6061 17.2192 17.3029 15.8579 17.5093L15.7095 18.1093L17.5675 21.6125L10.9675 26.8577C11.6668 27.7829 12.5046 28.5946 13.4514 29.2641V26.2125L18.0256 22.5803H20.3224C20.4064 23.29 20.7556 23.9418 21.3 24.4049C21.8444 24.8679 22.5438 25.108 23.2579 25.077C23.6931 25.0867 24.1276 25.0345 24.5482 24.9222V22.9867L22.8063 22.4835L22.9353 21.6061H26.5482V25.8706C25.3864 26.3215 24.1553 26.5681 22.9095 26.5996C22.1766 26.6336 21.4458 26.4976 20.7742 26.2021C20.1027 25.9066 19.5086 25.4597 19.0385 24.8964L13.4837 29.2641C15.8977 30.9959 18.8969 31.7064 21.8313 31.2416C24.7656 30.7768 27.3985 29.1742 29.1591 26.7811C30.9197 24.3881 31.6661 21.3976 31.2366 18.4579C30.807 15.5182 29.2361 12.8662 26.8643 11.077" fill="#D35220"/>
</g>
<defs>
<clipPath id="clip0_40_2472">
<rect width="40" height="40" fill="white"/>
</clipPath>
</defs>
</svg>
