<svg width="58" height="21" viewBox="0 0 58 21" fill="none" xmlns="http://www.w3.org/2000/svg">
<path d="M56.924 19C28.6914 5.15684 2.63077 17.9469 1.14484 19C-0.0439045 13.5237 6.40245 7.78957 8.879 6.20988C21.2617 -2.74169 43.0553 1.4709 49.9897 6.73653C55.5371 10.949 57.4193 16.8938 56.924 19Z" fill="#4FB6EC"/>
<path fill-rule="evenodd" clip-rule="evenodd" d="M31.5338 0.393797C39.4701 0.991723 46.815 3.38406 50.4432 6.13915C53.319 8.32293 55.2489 10.9583 56.3979 13.3312C56.9722 14.5174 57.356 15.6473 57.5635 16.6331C57.7674 17.6022 57.8138 18.4923 57.654 19.1716L57.4386 20.0876L56.5938 19.6733C42.6487 12.8357 29.239 12.5734 19.1202 14.1548C14.0604 14.9456 9.82888 16.1967 6.77447 17.3133C5.24742 17.8716 4.01693 18.3954 3.12664 18.8097C2.21526 19.2339 1.70242 19.524 1.57846 19.6118L0.652591 20.268L0.411858 19.159C-0.25414 16.0909 1.22873 13.0563 3.04185 10.6878C4.86331 8.30835 7.14794 6.42836 8.45706 5.58936C14.8499 0.977254 23.592 -0.204544 31.5338 0.393797ZM31.4211 1.88956C23.6441 1.30364 15.3066 2.48862 9.31834 6.81762L9.30067 6.83039L9.28228 6.84212C8.11173 7.58877 5.94795 9.35917 4.23292 11.5995C2.74679 13.5409 1.69215 15.709 1.75288 17.8067C1.97255 17.6967 2.22039 17.577 2.49374 17.4498C3.42335 17.0172 4.6932 16.4771 6.25942 15.9045C9.39156 14.7595 13.7183 13.4808 18.8886 12.6728C28.9827 11.0953 42.3124 11.3094 56.2315 17.8361C56.2091 17.5726 56.1654 17.2738 56.0956 16.942C55.9161 16.0892 55.5755 15.0747 55.0478 13.9849C53.9927 11.8058 52.2077 9.36249 49.5361 7.33376C46.2299 4.82322 39.2109 2.47644 31.4211 1.88956Z" fill="black"/>
<path d="M23.8718 3.26953L21 9.82081H23.1538L24.4103 6.5003L25.7564 9.82081H27.9103L24.9487 3.26953H23.8718Z" fill="white"/>
<path fill-rule="evenodd" clip-rule="evenodd" d="M31.5 10C33.433 10 35 8.433 35 6.5C35 4.567 33.433 3 31.5 3C29.567 3 28 4.567 28 6.5C28 8.433 29.567 10 31.5 10ZM31.5 8.20513C32.4417 8.20513 33.2051 7.44172 33.2051 6.5C33.2051 5.55828 32.4417 4.79487 31.5 4.79487C30.5583 4.79487 29.7949 5.55828 29.7949 6.5C29.7949 7.44172 30.5583 8.20513 31.5 8.20513Z" fill="white"/>
</svg>
