<svg width="58" height="20" viewBox="0 0 58 20" fill="none" xmlns="http://www.w3.org/2000/svg">
<path d="M56.924 19C28.6914 5.15684 2.63077 17.9469 1.14484 19C-0.0439045 13.5237 6.40245 7.78957 8.879 6.20988C21.2617 -2.74169 43.0553 1.4709 49.9897 6.73653C55.5371 10.949 57.4193 16.8938 56.924 19Z" fill="#C2FC3C"/>
<path fill-rule="evenodd" clip-rule="evenodd" d="M31.5561 0.143668C39.5613 0.741055 46.9701 3.13124 50.6298 5.88385C53.5306 8.06566 55.4772 10.6986 56.6362 13.0694C57.2155 14.2546 57.6026 15.3834 57.8119 16.3684C58.0176 17.3366 58.0644 18.2259 57.9033 18.9046L57.686 19.8197L56.8338 19.4058C42.7676 12.5744 29.2413 12.3123 19.0346 13.8923C13.9309 14.6823 9.6626 15.9323 6.58165 17.048C5.04133 17.6057 3.80015 18.1291 2.90213 18.543C1.98282 18.9668 1.46553 19.2566 1.3405 19.3444L0.406582 20L0.163757 18.892C-0.508028 15.8267 0.987728 12.7947 2.8166 10.4284C4.65388 8.0511 6.95836 6.17279 8.27885 5.33455C14.7273 0.7266 23.5452 -0.454134 31.5561 0.143668ZM31.4424 1.63808C23.5978 1.05269 15.188 2.23661 9.14762 6.5617L9.12979 6.57447L9.11125 6.58619C7.93053 7.33216 5.74795 9.10097 4.01802 11.3393C2.51898 13.2789 1.45517 15.4451 1.51643 17.5409C1.73801 17.431 1.988 17.3114 2.26373 17.1843C3.20142 16.7521 4.4823 16.2125 6.06213 15.6404C9.22148 14.4964 13.5858 13.2189 18.801 12.4116C28.9828 10.8355 42.4283 11.0495 56.4684 17.5702C56.4458 17.307 56.4018 17.0085 56.3313 16.677C56.1503 15.8249 55.8067 14.8114 55.2744 13.7225C54.2101 11.5454 52.4096 9.10428 49.7148 7.07738C46.3799 4.5691 39.2999 2.22444 31.4424 1.63808Z" fill="black"/>
<g clip-path="url(#clip0_40_2144)">
<path d="M33 6.5C33 7.39002 32.7361 8.26004 32.2416 9.00007C31.7471 9.74009 31.0443 10.3169 30.2221 10.6575C29.3998 10.9981 28.495 11.0872 27.6221 10.9135C26.7492 10.7399 25.9474 10.3113 25.318 9.68198C24.6887 9.05264 24.2601 8.25082 24.0865 7.37791C23.9128 6.50499 24.0019 5.60019 24.3425 4.77792C24.6831 3.95566 25.2599 3.25285 25.9999 2.75839C26.74 2.26392 27.61 2 28.5 2C29.6935 2 30.8381 2.47411 31.682 3.31802C32.5259 4.16193 33 5.30653 33 6.5Z" fill="#05482F"/>
<path d="M28.5 10.7324C27.6628 10.7324 26.8444 10.4842 26.1483 10.0191C25.4522 9.55394 24.9097 8.89285 24.5893 8.11939C24.2689 7.34593 24.1851 6.49483 24.3484 5.67373C24.5118 4.85263 24.9149 4.0984 25.5069 3.50641C26.0989 2.91443 26.8531 2.51129 27.6742 2.34796C28.4953 2.18463 29.3464 2.26846 30.1199 2.58884C30.8933 2.90921 31.5544 3.45176 32.0195 4.14785C32.4847 4.84395 32.7329 5.66234 32.7329 6.49953C32.7325 7.62205 32.2864 8.69848 31.4927 9.49222C30.699 10.286 29.6225 10.732 28.5 10.7324ZM28.5 2.16792C27.6419 2.16792 26.803 2.42239 26.0895 2.89915C25.3759 3.37591 24.8198 4.05355 24.4914 4.84637C24.163 5.6392 24.0771 6.5116 24.2445 7.35326C24.4119 8.19492 24.8252 8.96803 25.432 9.57483C26.0388 10.1816 26.8119 10.5949 27.6535 10.7623C28.4952 10.9297 29.3676 10.8438 30.1604 10.5154C30.9532 10.187 31.6309 9.63086 32.1076 8.91734C32.5844 8.20381 32.8389 7.36493 32.8389 6.50679V6.49953C32.8381 5.34916 32.3807 4.24615 31.5671 3.43285C30.7535 2.61955 29.6504 2.16249 28.5 2.16211" fill="white"/>
<path d="M31.1475 6.51005C31.1475 7.03372 30.9922 7.54563 30.7013 7.98105C30.4104 8.41647 29.9969 8.75584 29.513 8.95624C29.0292 9.15664 28.4969 9.20908 27.9832 9.10691C27.4696 9.00475 26.9979 8.75258 26.6276 8.38228C26.2573 8.01199 26.0051 7.54021 25.9029 7.0266C25.8008 6.51298 25.8532 5.98061 26.0536 5.4968C26.254 5.01299 26.5934 4.59947 27.0288 4.30853C27.4642 4.01759 27.9761 3.8623 28.4998 3.8623C29.202 3.8623 29.8755 4.14126 30.372 4.63781C30.8686 5.13436 31.1475 5.80782 31.1475 6.51005Z" fill="white"/>
<path d="M26.1918 8.70827L26.2281 8.68359C26.2876 8.74746 26.4299 8.87811 26.4299 8.87811C26.5344 8.97101 26.5344 9.07263 26.4778 9.13505C26.4595 9.15496 26.4375 9.17107 26.413 9.18244C26.3885 9.19381 26.362 9.20022 26.335 9.2013C26.3081 9.20238 26.2811 9.19811 26.2558 9.18873C26.2305 9.17935 26.2072 9.16505 26.1875 9.14666C26.1832 9.14316 26.1793 9.13927 26.1759 9.13505L26.1468 9.10456L26.1759 9.05956C26.1875 9.07124 26.2013 9.0805 26.2164 9.08682C26.2316 9.09315 26.2479 9.0964 26.2644 9.0964C26.2809 9.0964 26.2972 9.09315 26.3124 9.08682C26.3276 9.0805 26.3413 9.07124 26.3529 9.05956L26.3602 9.05085C26.3965 9.01166 26.3994 8.9565 26.337 8.90569L26.3036 8.87521L25.9581 9.25843L25.8623 9.16698L26.2136 8.77359L26.1918 8.70827Z" fill="white"/>
<path d="M27.0976 9.75276L27.2631 9.81663V9.65986C27.2631 9.62484 27.266 9.58988 27.2718 9.55534C27.2529 9.58292 27.2311 9.61051 27.2093 9.63663L27.0976 9.75276ZM27.266 9.89792L27.0482 9.81083L26.9626 9.91099L26.874 9.87034L27.2993 9.41309L27.3952 9.45083L27.4256 10.0184L27.4706 10.062L27.4532 10.0939L27.2732 10.0358L27.266 9.89792Z" fill="white"/>
<path d="M28.3315 9.69344L28.3417 9.65134H28.6175C28.6654 9.64644 28.7133 9.66061 28.7508 9.69077C28.7883 9.72094 28.8124 9.76466 28.8178 9.81247C28.8174 9.85326 28.8041 9.89287 28.7798 9.9257C28.7556 9.95852 28.7217 9.98289 28.6828 9.99537L28.8672 10.2233L28.6988 10.2363L28.5536 10.0026V9.96199C28.5875 9.95662 28.6181 9.9387 28.6393 9.91181C28.6606 9.88491 28.6709 9.851 28.6683 9.81682C28.6687 9.80381 28.6665 9.79085 28.6618 9.77871C28.6571 9.76658 28.6499 9.75551 28.6409 9.74617C28.6318 9.73683 28.621 9.7294 28.609 9.72433C28.597 9.71927 28.5841 9.71666 28.5711 9.71666H28.5144V10.2349H28.3823V9.71521L28.3315 9.69344Z" fill="white"/>
<path d="M30.033 9.9155L29.9096 9.96776L29.6976 9.48728H29.6396L29.6323 9.44518C29.6889 9.42195 29.7397 9.40163 29.7949 9.37695L30.033 9.9155Z" fill="white"/>
<path d="M30.7922 8.86592L30.7066 8.83253C30.6906 8.84221 30.6764 8.85448 30.6645 8.86882C30.6355 8.90366 30.618 8.95156 30.6645 8.98495C30.7603 9.06624 30.9229 8.85721 31.0709 8.98495C31.1044 9.02068 31.1224 9.06816 31.121 9.11709C31.1197 9.16601 31.0991 9.21242 31.0637 9.24624C31.0191 9.29549 30.9634 9.33333 30.9011 9.35656L30.8561 9.27818C30.9161 9.26534 30.9705 9.23383 31.0114 9.18818C31.0361 9.15914 31.0477 9.12285 31.0114 9.09527C30.92 9.01834 30.7516 9.21576 30.6093 9.09527C30.5919 9.07799 30.578 9.05742 30.5685 9.03475C30.5591 9.01207 30.5542 8.98775 30.5542 8.96318C30.5542 8.93861 30.5591 8.91428 30.5685 8.8916C30.578 8.86893 30.5919 8.84836 30.6093 8.83108L30.6209 8.81947C30.6542 8.78102 30.6946 8.74946 30.74 8.72656L30.8227 8.82237L30.7922 8.86592Z" fill="white"/>
<path d="M24.7768 7.40581L24.726 7.3971C24.6928 7.25343 24.6676 7.10805 24.6505 6.96161C24.6381 6.89735 24.6516 6.83079 24.688 6.77642C24.7244 6.72205 24.7809 6.68427 24.845 6.67129C24.9048 6.6678 24.9641 6.6843 25.0135 6.7182C25.0629 6.7521 25.0997 6.80148 25.1179 6.85855L25.5244 6.5C25.5225 6.57994 25.5254 6.65992 25.5331 6.73952L25.1484 7.03129H25.0932C25.086 6.98204 25.0605 6.93733 25.0217 6.90611C24.983 6.87488 24.9339 6.85945 24.8842 6.8629C24.8652 6.8649 24.8468 6.87061 24.8301 6.87971C24.8133 6.88882 24.7985 6.90114 24.7865 6.91597C24.7745 6.9308 24.7656 6.94784 24.7601 6.96614C24.7547 6.98443 24.753 7.00361 24.755 7.02258C24.7536 7.03075 24.7536 7.03909 24.755 7.04726L24.7666 7.14597L25.565 7.04726C25.5713 7.10354 25.5835 7.159 25.6013 7.21274L24.8015 7.31145L24.7768 7.40581Z" fill="white"/>
<path d="M25.4678 6.0428C25.4968 5.87296 25.4054 5.7249 25.1601 5.6828C25.0802 5.65865 24.994 5.66688 24.9201 5.70572C24.8463 5.74455 24.7906 5.81088 24.7652 5.89038L24.7565 5.92958C24.7275 6.10232 24.8175 6.24458 25.0555 6.28522C25.2936 6.32587 25.4373 6.2199 25.4678 6.0428ZM25.5636 6.07909C25.5484 6.19576 25.4877 6.30168 25.3947 6.37375C25.3017 6.44581 25.1839 6.47817 25.0672 6.46377H25.0352C24.9758 6.45457 24.9188 6.43375 24.8675 6.4025C24.8161 6.37125 24.7714 6.33018 24.736 6.28164C24.7005 6.2331 24.675 6.17805 24.6608 6.11963C24.6467 6.06121 24.6442 6.00058 24.6534 5.94119V5.90635C24.6984 5.64651 24.8843 5.45055 25.1644 5.49845C25.2902 5.51912 25.4026 5.58876 25.4772 5.69214C25.5517 5.79551 25.5823 5.92421 25.5622 6.05006C25.5627 6.05973 25.5627 6.06942 25.5622 6.07909" fill="white"/>
<path d="M24.9872 5.09482L24.9117 5.15434L24.8711 5.11805C24.8958 5.05563 24.9321 4.96128 24.964 4.8945L25.6898 5.2487L25.7174 5.19063C25.7437 5.13258 25.7551 5.06893 25.7508 5.00535C25.7465 4.94178 25.7266 4.88026 25.6927 4.82628L25.7421 4.78418L25.9104 5.02805C25.822 5.18558 25.7467 5.35018 25.6854 5.52015L25.6317 5.51144V5.40982L24.9872 5.09482Z" fill="white"/>
<path d="M26.0745 4.28341L25.7073 4.14986L25.8873 4.4997L26.0745 4.28341ZM26.5434 4.17744L26.5724 4.22389C26.5115 4.27615 26.4534 4.32986 26.391 4.39083L26.1776 4.3226L25.9308 4.59841L26.0441 4.81615C26.0223 4.84663 25.9947 4.89018 25.9744 4.92357L25.52 4.01776L25.597 3.93066L26.4563 4.22099L26.5434 4.17744Z" fill="white"/>
<path d="M26.8567 2.97949L27.2922 3.77352L27.2341 3.79965L26.4241 3.53401L26.7754 4.0682L26.681 4.13788L26.2456 3.46433L26.1483 3.47304L26.1338 3.41933L26.279 3.31191L27.0251 3.54998L26.7856 3.11449L26.6898 3.12175L26.6752 3.06949C26.726 3.04191 26.8059 3.00272 26.8552 2.97949" fill="white"/>
<path d="M27.7743 3.50675C27.8607 3.48423 27.9346 3.42829 27.9798 3.35125C28.025 3.27421 28.0378 3.18237 28.0152 3.09594C28.0135 3.08754 28.0111 3.07928 28.008 3.07127C27.9908 2.98743 27.9416 2.91358 27.8709 2.86535C27.8002 2.81713 27.7134 2.79831 27.6291 2.81288L27.5798 2.8274L27.4346 2.87094L27.6291 3.54885L27.7743 3.50675ZM27.6001 2.72578C27.6508 2.70424 27.7052 2.6929 27.7603 2.6924C27.8154 2.6919 27.8701 2.70226 27.9212 2.72289C27.9722 2.74351 28.0188 2.77399 28.0581 2.8126C28.0974 2.8512 28.1287 2.89717 28.1502 2.94788C28.1588 2.97018 28.1661 2.99296 28.172 3.01611C28.1912 3.07185 28.1991 3.13084 28.1954 3.18967C28.1917 3.2485 28.1763 3.30602 28.1503 3.3589C28.1243 3.41179 28.088 3.459 28.0437 3.49783C27.9993 3.53666 27.9477 3.56633 27.8918 3.58514L27.8527 3.59675C27.8527 3.59675 27.6509 3.65046 27.4985 3.70562L27.2662 2.91885L27.1689 2.90433V2.84917C27.3359 2.79256 27.5144 2.74175 27.6044 2.71852" fill="white"/>
<path d="M29.6453 3.64949C29.5108 3.66723 29.3741 3.65786 29.2432 3.62191C28.979 3.55223 28.7773 3.37223 28.8586 3.06449C28.9398 2.75675 29.2142 2.66239 29.5045 2.73933C29.6195 2.77144 29.729 2.82036 29.8297 2.88449L29.7382 3.10223L29.6889 3.08916L29.6773 2.96142C29.615 2.90318 29.5399 2.86041 29.4581 2.83658C29.4174 2.82348 29.3745 2.81854 29.3319 2.82203C29.2893 2.82552 29.2478 2.83738 29.2097 2.85693C29.1717 2.87648 29.1379 2.90334 29.1103 2.93596C29.0827 2.96859 29.0617 3.00634 29.0487 3.04707C29.0487 3.06158 29.0415 3.07755 29.0386 3.09207C29.0242 3.13541 29.0186 3.1812 29.0222 3.22673C29.0258 3.27226 29.0384 3.31662 29.0594 3.35719C29.0803 3.39776 29.1092 3.43374 29.1442 3.46299C29.1793 3.49225 29.2199 3.5142 29.2636 3.52755H29.2853C29.3564 3.54496 29.4306 3.54496 29.5016 3.52755L29.5466 3.35481L29.416 3.26481L29.4436 3.2111L29.7339 3.28949L29.6453 3.64949Z" fill="white"/>
<path d="M30.3307 3.75629L30.3873 3.37017L30.0825 3.60678L30.3307 3.75629ZM30.5136 4.20629L30.4701 4.24984C30.412 4.20194 30.3365 4.13952 30.2857 4.10468L30.3147 3.86517L29.9983 3.67355L29.8183 3.81871L29.7021 3.765L30.4933 3.16113L30.5876 3.21775L30.4628 4.13371L30.5136 4.20629Z" fill="white"/>
<path d="M31.129 3.69803L31.1783 3.6748C31.2809 3.77484 31.3778 3.88049 31.4687 3.99126C31.5156 4.03856 31.5419 4.10247 31.5419 4.16908C31.5419 4.23569 31.5156 4.2996 31.4687 4.3469C31.4213 4.38363 31.3631 4.40356 31.3032 4.40356C31.2433 4.40356 31.185 4.38363 31.1377 4.3469L31.0027 4.87384L30.8575 4.67497L31.0027 4.21771L31.0535 4.19303C31.0868 4.22877 31.1322 4.2507 31.1809 4.25446C31.2296 4.25823 31.2779 4.24355 31.3162 4.21335C31.3312 4.19851 31.343 4.18087 31.3511 4.16144C31.3592 4.14201 31.3633 4.12117 31.3633 4.10013C31.3633 4.07908 31.3592 4.05825 31.3511 4.03881C31.343 4.01938 31.3312 4.00174 31.3162 3.9869L31.248 3.91868L30.6674 4.4369L30.5483 4.31497L31.158 3.79384L31.129 3.69803Z" fill="white"/>
<path d="M31.8039 4.53753L31.8591 4.53027C31.9331 4.65634 31.9995 4.78674 32.0579 4.92076C32.0906 4.97737 32.0994 5.04462 32.0826 5.10775C32.0657 5.17089 32.0245 5.22475 31.9679 5.25753H31.9578C31.9018 5.27876 31.8403 5.28056 31.7832 5.26266C31.7261 5.24476 31.6766 5.20819 31.6428 5.15882L31.367 5.63205C31.3437 5.55802 31.2857 5.40124 31.2857 5.40124L31.56 5.00205L31.6152 4.99189C31.6374 5.03533 31.6749 5.069 31.7205 5.08643C31.766 5.10385 31.8164 5.10378 31.862 5.08624C31.8999 5.06832 31.9291 5.03608 31.9432 4.99662C31.9574 4.95715 31.9553 4.91368 31.9374 4.87576V4.86705L31.8968 4.7756L31.1594 5.11382L31.0737 4.96866L31.7995 4.63624L31.8039 4.53753Z" fill="white"/>
<path d="M31.5485 6.10512C31.5673 6.27641 31.6936 6.39544 31.9433 6.36786C31.985 6.37 32.0268 6.36382 32.0661 6.34968C32.1054 6.33554 32.1415 6.31371 32.1723 6.28548C32.2031 6.25724 32.228 6.22316 32.2455 6.18522C32.263 6.14728 32.2728 6.10623 32.2743 6.06447V6.01512C32.2554 5.83947 32.1291 5.72479 31.8896 5.75238C31.6501 5.77996 31.5412 5.92076 31.5586 6.09931M31.4585 6.0906C31.4486 6.03311 31.4503 5.97422 31.4636 5.91743C31.4769 5.86063 31.5015 5.80708 31.5359 5.75997C31.5703 5.71285 31.6138 5.67312 31.6638 5.64314C31.7139 5.61316 31.7694 5.59354 31.8272 5.58544H31.862C31.9823 5.57067 32.1036 5.60427 32.1991 5.67885C32.2946 5.75343 32.3567 5.86289 32.3715 5.98318C32.3722 5.99575 32.3722 6.00835 32.3715 6.02092C32.3991 6.28367 32.2743 6.52318 31.9912 6.55367C31.8648 6.56839 31.7376 6.53233 31.6377 6.4534C31.5379 6.37447 31.4734 6.25913 31.4585 6.1327C31.4578 6.12061 31.4578 6.1085 31.4585 6.09641" fill="white"/>
<path d="M32.0622 7.25519L32.2204 7.21309C32.232 7.18449 32.2407 7.15483 32.2465 7.12454C32.2596 7.04325 32.2465 6.95615 32.1565 6.94164C32.0114 6.91696 31.8836 7.32922 31.6485 7.29148C31.4583 7.26099 31.422 7.0868 31.4496 6.91696C31.4659 6.81767 31.5074 6.72422 31.5701 6.64551L31.6746 6.70648C31.6046 6.77155 31.559 6.85864 31.5454 6.95325C31.5338 7.02583 31.5585 7.09841 31.6354 7.10857C31.7806 7.1318 31.9054 6.7268 32.1522 6.76599C32.3191 6.79357 32.3757 6.96777 32.3467 7.14777C32.3344 7.22148 32.3099 7.29262 32.2741 7.35825L32.0549 7.29728L32.0622 7.25519Z" fill="white"/>
<path d="M29.8788 6.49994H29.7032L29.603 6.11672C29.4826 6.06187 29.3521 6.03223 29.2198 6.02962C28.7727 6.02962 28.5288 6.43607 28.539 6.96736L28.1746 6.26768C28.2871 6.08858 28.4448 5.94233 28.6319 5.84369C28.819 5.74506 29.0288 5.69753 29.2401 5.70591C29.4822 5.70769 29.7209 5.76218 29.9398 5.86559L29.8788 6.49994ZM30.0443 4.49526L28.5158 5.71026C28.5444 5.60886 28.5484 5.50208 28.5274 5.39882C28.5065 5.29555 28.4612 5.19878 28.3953 5.11655L29.5566 4.19768C29.4741 4.16006 29.3898 4.12663 29.304 4.09752L28.2153 4.96849C28.089 4.90728 27.9488 4.88025 27.8088 4.8901H27.4459L28.5956 3.97559H28.4998C28.028 3.97559 27.5656 4.10696 27.1643 4.35498C26.763 4.603 26.4386 4.95788 26.2277 5.37984C26.0167 5.8018 25.9274 6.27418 25.9697 6.74404C26.0121 7.21391 26.1845 7.66269 26.4675 8.0401V7.35639L27.4067 6.60881V5.20801H27.6143C27.9046 5.20801 28.028 5.38655 28.028 5.53172C28.028 5.73639 27.8742 5.89317 27.5679 5.93962L27.5345 6.07462L27.9525 6.86284L26.4675 8.04301C26.6249 8.25117 26.8134 8.4338 27.0264 8.58446V7.89784L28.0556 7.08059H28.5724C28.5913 7.24028 28.6699 7.38693 28.7923 7.49112C28.9148 7.59531 29.0722 7.64934 29.2329 7.64236C29.3308 7.64453 29.4285 7.6328 29.5232 7.60752V7.17204L29.1312 7.05881L29.1603 6.86139H29.9732V7.82091C29.7118 7.92236 29.4348 7.97785 29.1545 7.98494C28.9896 7.99259 28.8251 7.96197 28.674 7.89549C28.5229 7.82901 28.3893 7.72846 28.2835 7.60172L27.0337 8.58446C27.5768 8.97411 28.2517 9.13397 28.9119 9.02939C29.5721 8.92481 30.1645 8.56421 30.5606 8.02578C30.9568 7.48735 31.1247 6.81447 31.0281 6.15304C30.9314 5.49161 30.578 4.89493 30.0443 4.49236" fill="#D35220"/>
</g>
<defs>
<clipPath id="clip0_40_2144">
<rect width="9" height="9" fill="white" transform="translate(24 2)"/>
</clipPath>
</defs>
</svg>
